<?xml version="1.0" encoding="UTF-8"?>
<svg id="Layer_1" data-name="Layer 1" xmlns="http://www.w3.org/2000/svg" viewBox="0 0 1920 1080">
  <defs>
    <style>
      .cls-1 {
        fill: #003b53;
        stroke-width: 0px;
      }

      .cls-2 {
        fill: none;
        stroke: #003b53;
        stroke-miterlimit: 10;
        stroke-width: 25px;
      }
    </style>
  </defs>
  <path class="cls-1" d="M743.17,691.09c1.72,5.62,5.77,9.62,14.96,9.62s13.06-3.77,13.06-8.29c0-4.76-2.58-7.74-14.7-9.78-12.86-2.17-16.18-6.16-16.18-12.27,0-7.56,7.14-12.03,16.64-12.03,14.31,0,17.53,7.53,18.03,11.85h-5.14c-.99-3.27-3-7.61-13-7.61-6.79,0-11.36,2.35-11.36,7.28,0,3.95,1.82,6.55,12.47,8.31,15.89,2.65,18.48,7.63,18.48,13.72,0,6.94-5.56,12.99-18.58,12.99-12.06,0-18.38-5.53-19.86-13.81h5.19Z"/>
  <path class="cls-1" d="M830.16,681.5c0,12.7-8.63,23.43-23.26,23.43s-23.28-10.34-23.28-23.47c0-12.42,9.25-23.12,23.37-23.12s23.17,10.7,23.17,23.16ZM788.97,681.28c0,9.94,6.31,19.24,18.04,19.24s17.8-8.5,17.8-18.9c0-9.64-6.4-18.89-18.19-18.89-10.91,0-17.66,8.56-17.66,18.54Z"/>
  <path class="cls-1" d="M840.38,659.28h4.98v40.26h27.5l-.83,4.44h-31.66v-44.7Z"/>
  <path class="cls-1" d="M888.71,689.47l-6.3,14.51h-5.29l19.56-44.7h5.89l20.3,44.7h-5.5l-6.55-14.51h-22.11ZM909.05,685.03c-5.83-12.93-8.55-18.95-9.57-21.88h-.06c-.9,2.81-4.15,10.71-8.96,21.88h18.59Z"/>
  <path class="cls-1" d="M935.62,684.14v19.84h-5.01v-44.7h20.5c8.84,0,15.03,3.95,15.03,11.95,0,5.3-2.5,9.25-8.28,10.68,3.26.85,7.1,3.22,7.1,10.98v1.89c0,3.53,0,7.38.51,9.2h-5.14c-.65-1.94-.51-5.55-.51-9.02v-1.5c0-7.17-2.81-9.31-11.02-9.31h-13.18ZM935.62,679.8h14.13c7.47,0,11.22-2.6,11.22-8.36,0-5.25-3.76-7.82-10.94-7.82h-14.4v16.18Z"/>
  <path class="cls-1" d="M995.84,659.28h20.39c11.31,0,15.84,5.88,15.84,12.9,0,8.68-5.89,13.41-15.52,13.41h-15.67v18.39h-5.04v-44.7ZM1000.88,681.14h14.75c6.57,0,11.25-1.87,11.25-8.88,0-5.48-3.74-8.55-11.25-8.55h-14.75v17.43Z"/>
  <path class="cls-1" d="M1085.68,681.5c0,12.7-8.63,23.43-23.26,23.43s-23.28-10.34-23.28-23.47c0-12.42,9.25-23.12,23.37-23.12s23.17,10.7,23.17,23.16ZM1044.49,681.28c0,9.94,6.31,19.24,18.04,19.24s17.8-8.5,17.8-18.9c0-9.64-6.39-18.89-18.18-18.89-10.91,0-17.66,8.56-17.66,18.54Z"/>
  <path class="cls-1" d="M1105.08,703.98l-14.2-44.7h5.33c3.5,11.2,10.88,34.3,11.83,39.66h.06c1.14-5.8,8.9-28.7,12.58-39.66h5.19c3.28,10.09,11.31,35.08,12.2,39.54h.07c1.47-6.29,9.13-28.96,12.73-39.54h5.1l-15.22,44.7h-5.55c-3.29-10.24-11.14-34.3-12.17-39.26h-.06c-1.06,5.17-8.64,27.74-12.5,39.26h-5.39Z"/>
  <path class="cls-1" d="M1196.2,682.61h-27.33v16.98h30.1l-.74,4.39h-34.39v-44.7h33.79v4.39h-28.76v14.56h27.33v4.39Z"/>
  <path class="cls-1" d="M1213.47,684.14v19.84h-5.01v-44.7h20.5c8.84,0,15.03,3.95,15.03,11.95,0,5.3-2.5,9.25-8.28,10.68,3.26.85,7.1,3.22,7.1,10.98v1.89c0,3.53,0,7.38.51,9.2h-5.14c-.65-1.94-.51-5.55-.51-9.02v-1.5c0-7.17-2.81-9.31-11.02-9.31h-13.18ZM1213.47,679.8h14.13c7.47,0,11.22-2.6,11.22-8.36,0-5.25-3.76-7.82-10.94-7.82h-14.4v16.18Z"/>
  <path class="cls-1" d="M1314.07,691.21c-2.68,7.63-8.11,13.71-20.5,13.71-14.53,0-22.7-10.2-22.7-23.18s9.08-23.4,22.95-23.4c12.68,0,18.53,6.76,20.41,14.06h-5.21c-2.22-5.29-6.15-9.67-15.27-9.67-10.8,0-17.53,7.92-17.53,18.84s6.77,18.98,17.59,18.98c9,0,12.53-3.94,15.15-9.33h5.1Z"/>
  <path class="cls-1" d="M1367.42,681.5c0,12.7-8.63,23.43-23.26,23.43s-23.28-10.34-23.28-23.47c0-12.42,9.25-23.12,23.37-23.12s23.17,10.7,23.17,23.16ZM1326.23,681.28c0,9.94,6.31,19.24,18.04,19.24s17.8-8.5,17.8-18.9c0-9.64-6.4-18.89-18.19-18.89-10.91,0-17.66,8.56-17.66,18.54Z"/>
  <path class="cls-1" d="M1382.66,684.14v19.84h-5.01v-44.7h20.5c8.84,0,15.03,3.95,15.03,11.95,0,5.3-2.5,9.25-8.28,10.68,3.26.85,7.1,3.22,7.1,10.98v1.89c0,3.53,0,7.38.51,9.2h-5.14c-.65-1.94-.51-5.55-.51-9.02v-1.5c0-7.17-2.81-9.31-11.02-9.31h-13.18ZM1382.66,679.8h14.13c7.47,0,11.22-2.6,11.22-8.36,0-5.25-3.76-7.82-10.94-7.82h-14.4v16.18Z"/>
  <path class="cls-1" d="M1424.69,659.28h20.39c11.31,0,15.84,5.88,15.84,12.9,0,8.68-5.89,13.41-15.52,13.41h-15.67v18.39h-5.04v-44.7ZM1429.73,681.14h14.75c6.57,0,11.25-1.87,11.25-8.88,0-5.48-3.74-8.55-11.25-8.55h-14.75v17.43Z"/>
  <path class="cls-1" d="M1514.54,681.5c0,12.7-8.63,23.43-23.26,23.43s-23.28-10.34-23.28-23.47c0-12.42,9.25-23.12,23.37-23.12s23.17,10.7,23.17,23.16ZM1473.35,681.28c0,9.94,6.31,19.24,18.04,19.24s17.8-8.5,17.8-18.9c0-9.64-6.39-18.89-18.18-18.89-10.91,0-17.66,8.56-17.66,18.54Z"/>
  <path class="cls-1" d="M1529.78,684.14v19.84h-5.01v-44.7h20.5c8.84,0,15.03,3.95,15.03,11.95,0,5.3-2.5,9.25-8.28,10.68,3.26.85,7.1,3.22,7.1,10.98v1.89c0,3.53,0,7.38.51,9.2h-5.14c-.65-1.94-.51-5.55-.51-9.02v-1.5c0-7.17-2.81-9.31-11.02-9.31h-13.18ZM1529.78,679.8h14.13c7.47,0,11.22-2.6,11.22-8.36,0-5.25-3.76-7.82-10.94-7.82h-14.4v16.18Z"/>
  <path class="cls-1" d="M1577.86,689.47l-6.3,14.51h-5.29l19.56-44.7h5.89l20.3,44.7h-5.5l-6.55-14.51h-22.11ZM1598.19,685.03c-5.83-12.93-8.55-18.95-9.57-21.88h-.06c-.9,2.81-4.15,10.71-8.96,21.88h18.59Z"/>
  <path class="cls-1" d="M1624.65,663.71h-17.41v-4.43h39.9v4.43h-17.4v40.27h-5.08v-40.27Z"/>
  <path class="cls-1" d="M1659.71,659.28v44.7h-5.03v-44.7h5.03Z"/>
  <path class="cls-1" d="M1716.79,681.5c0,12.7-8.63,23.43-23.26,23.43s-23.28-10.34-23.28-23.47c0-12.42,9.25-23.12,23.37-23.12s23.17,10.7,23.17,23.16ZM1675.6,681.28c0,9.94,6.31,19.24,18.04,19.24s17.8-8.5,17.8-18.9c0-9.64-6.4-18.89-18.19-18.89-10.91,0-17.66,8.56-17.66,18.54Z"/>
  <path class="cls-1" d="M1727.01,703.98v-44.7h6.06c9.34,12.54,26.36,34.12,28.82,38.52h.13c-.39-6.13-.33-12.82-.33-20.05v-18.47h4.77v44.7h-5.76c-7.33-9.56-25.77-34.2-29.12-39.43h-.12c.32,5.82.32,12.14.32,20.04v19.39h-4.77Z"/>
  <g>
    <path class="cls-1" d="M900.02,613.42v-125.37h47.48c27.77,44.9,37.14,61.19,45.23,77.33h.67c-1.13-11.79-1.07-34.47-1.07-55.2v-22.13h36.69v125.37h-44.86c-9.77-17.41-40.59-70.79-48.04-86.05h-.61c1.2,14.33,1.26,30.96,1.26,55.56v30.49h-36.75Z"/>
    <path class="cls-1" d="M1165.65,563.55h-66.99v20.93h74.9l-4.68,28.95h-110.38v-125.37h110.71v29.01h-70.54v17.47h66.99v29.01Z"/>
    <path class="cls-1" d="M1357.24,571.17c0-19.9.36-43.98,1.27-58.69h-.36c-6.05,24.25-14.05,56.62-26.57,100.95h-33.49c-9.86-41.22-17.98-75.85-24.14-101.2h-.3c.77,14.62,2.2,38.81,2.2,60.33v40.87h-36.4v-125.37h58.34c8.08,28.24,16.02,59.05,19.58,80.16h.24c4.79-22.18,12.82-51.48,21.22-80.16h58.14v125.37h-39.73v-42.26Z"/>
    <path class="cls-1" d="M1426.45,488.05h70.51c30.14,0,51.14,15,51.14,40.87s-19.79,41.97-50.97,41.97h-30.08v42.53h-40.59v-125.37ZM1467.04,543.33h23.57c11,0,17.37-4.47,17.37-14.07,0-8.02-4.84-13.77-17.37-13.77h-23.57v27.84Z"/>
    <path class="cls-1" d="M1606.68,567.31v46.12h-40v-125.37h75.81c31.16,0,47.43,15.23,47.43,35.99,0,16.15-9.37,25.79-21.63,30.03,6.77,2.9,18.3,8.91,18.3,30.17v6.79c0,7.12.01,16.26,1.73,22.38h-40.56c-2.08-5.28-2.56-12.98-2.56-25.94v-4.22c0-11.66-3.72-15.95-19.5-15.95h-19.02ZM1606.68,541.27h24.94c11.1,0,17.3-4.05,17.3-13.12,0-8.34-5.7-13.06-17.31-13.06h-24.93v26.18Z"/>
    <path class="cls-1" d="M1712.39,488.05h40.85v96.36h67.29l-4.78,29.01h-103.36v-125.37Z"/>
    <g>
      <path class="cls-1" d="M785.95,538.77c0-4.5,3.59-8.09,8.09-8.09h24.18c.38,0,.71.04,1.08.08l.13-.12,33.48-35.61c-11.92-8.17-27.43-13.05-46.15-13.05-50.16,0-75.55,32.44-75.55,68.63,0,20.47,7.38,38.65,21.43,51.12l33.85-35.98c-.38-.88-.54-1.79-.54-2.79v-24.18Z"/>
      <path class="cls-1" d="M859.33,500.04l-33.61,35.73c.38.92.58,1.92.58,3v24.18c0,4.46-3.63,8.09-8.09,8.09h-24.18c-.46,0-.92-.04-1.33-.13l-33.65,35.82c11.76,8.05,27.1,12.76,45.78,12.76,51.66,0,76.17-31.94,76.17-69.04,0-19.76-7.55-37.82-21.68-50.41Z"/>
    </g>
  </g>
  <path class="cls-2" d="M636.14,617.95c.25,23.91-2.97,47.02-9.19,68.87l-212.62-214.41c-9.64-9.72-25.36-9.72-35,0l-215.82,217.64c-6.6-22-10.15-45.32-10.15-69.48,0-132.38,106.56-239.87,238.58-241.38,133.64-1.53,242.79,105.11,244.21,238.76Z"/>
  <path class="cls-2" d="M612.45,736.16l-.48,2.04c-.88,3.77-4.24,6.43-8.11,6.43h-28.71c-2.22,0-4.35-.89-5.92-2.47l-13.66-13.78-153.15-154.45c-3.26-3.29-8.58-3.29-11.84,0l-153.15,154.45-13.66,13.78c-1.56,1.58-3.7,2.47-5.92,2.47h-28.71c-3.87,0-7.23-2.67-8.11-6.43l-.48-2.04c-.65-2.79.18-5.73,2.2-7.77h0s17.55-17.7,17.55-17.7l190.29-191.89c3.26-3.29,8.58-3.29,11.84,0l187.6,189.18,20.24,20.42h0c2.02,2.04,2.85,4.97,2.2,7.77Z"/>
  <rect class="cls-1" x="369.67" y="691.12" width="50.15" height="56.43" rx="10.47" ry="10.47"/>
</svg>