<svg width="145" height="62" viewBox="0 0 145 62" fill="none" xmlns="http://www.w3.org/2000/svg">
<path d="M4.65 56.105C3.92 56.105 3.26 55.98 2.67 55.73C2.09 55.48 1.63 55.12 1.29 54.65C0.95 54.18 0.775 53.625 0.765 52.985H3.015C3.045 53.415 3.195 53.755 3.465 54.005C3.745 54.255 4.125 54.38 4.605 54.38C5.095 54.38 5.48 54.265 5.76 54.035C6.04 53.795 6.18 53.485 6.18 53.105C6.18 52.795 6.085 52.54 5.895 52.34C5.705 52.14 5.465 51.985 5.175 51.875C4.895 51.755 4.505 51.625 4.005 51.485C3.325 51.285 2.77 51.09 2.34 50.9C1.92 50.7 1.555 50.405 1.245 50.015C0.945 49.615 0.795 49.085 0.795 48.425C0.795 47.805 0.95 47.265 1.26 46.805C1.57 46.345 2.005 45.995 2.565 45.755C3.125 45.505 3.765 45.38 4.485 45.38C5.565 45.38 6.44 45.645 7.11 46.175C7.79 46.695 8.165 47.425 8.235 48.365H5.925C5.905 48.005 5.75 47.71 5.46 47.48C5.18 47.24 4.805 47.12 4.335 47.12C3.925 47.12 3.595 47.225 3.345 47.435C3.105 47.645 2.985 47.95 2.985 48.35C2.985 48.63 3.075 48.865 3.255 49.055C3.445 49.235 3.675 49.385 3.945 49.505C4.225 49.615 4.615 49.745 5.115 49.895C5.795 50.095 6.35 50.295 6.78 50.495C7.21 50.695 7.58 50.995 7.89 51.395C8.2 51.795 8.355 52.32 8.355 52.97C8.355 53.53 8.21 54.05 7.92 54.53C7.63 55.01 7.205 55.395 6.645 55.685C6.085 55.965 5.42 56.105 4.65 56.105ZM13.6406 56.135C12.8406 56.135 12.1206 55.96 11.4806 55.61C10.8406 55.25 10.3356 54.745 9.96562 54.095C9.60562 53.445 9.42562 52.695 9.42562 51.845C9.42562 50.995 9.61062 50.245 9.98062 49.595C10.3606 48.945 10.8756 48.445 11.5256 48.095C12.1756 47.735 12.9006 47.555 13.7006 47.555C14.5006 47.555 15.2256 47.735 15.8756 48.095C16.5256 48.445 17.0356 48.945 17.4056 49.595C17.7856 50.245 17.9756 50.995 17.9756 51.845C17.9756 52.695 17.7806 53.445 17.3906 54.095C17.0106 54.745 16.4906 55.25 15.8306 55.61C15.1806 55.96 14.4506 56.135 13.6406 56.135ZM13.6406 54.305C14.0206 54.305 14.3756 54.215 14.7056 54.035C15.0456 53.845 15.3156 53.565 15.5156 53.195C15.7156 52.825 15.8156 52.375 15.8156 51.845C15.8156 51.055 15.6056 50.45 15.1856 50.03C14.7756 49.6 14.2706 49.385 13.6706 49.385C13.0706 49.385 12.5656 49.6 12.1556 50.03C11.7556 50.45 11.5556 51.055 11.5556 51.845C11.5556 52.635 11.7506 53.245 12.1406 53.675C12.5406 54.095 13.0406 54.305 13.6406 54.305ZM21.3911 44.9V56H19.2911V44.9H21.3911ZM22.7009 51.815C22.7009 50.975 22.8659 50.23 23.1959 49.58C23.5359 48.93 23.9909 48.43 24.5609 48.08C25.1409 47.73 25.7859 47.555 26.4959 47.555C27.1159 47.555 27.6559 47.68 28.1159 47.93C28.5859 48.18 28.9609 48.495 29.2409 48.875V47.69H31.3559V56H29.2409V54.785C28.9709 55.175 28.5959 55.5 28.1159 55.76C27.6459 56.01 27.1009 56.135 26.4809 56.135C25.7809 56.135 25.1409 55.955 24.5609 55.595C23.9909 55.235 23.5359 54.73 23.1959 54.08C22.8659 53.42 22.7009 52.665 22.7009 51.815ZM29.2409 51.845C29.2409 51.335 29.1409 50.9 28.9409 50.54C28.7409 50.17 28.4709 49.89 28.1309 49.7C27.7909 49.5 27.4259 49.4 27.0359 49.4C26.6459 49.4 26.2859 49.495 25.9559 49.685C25.6259 49.875 25.3559 50.155 25.1459 50.525C24.9459 50.885 24.8459 51.315 24.8459 51.815C24.8459 52.315 24.9459 52.755 25.1459 53.135C25.3559 53.505 25.6259 53.79 25.9559 53.99C26.2959 54.19 26.6559 54.29 27.0359 54.29C27.4259 54.29 27.7909 54.195 28.1309 54.005C28.4709 53.805 28.7409 53.525 28.9409 53.165C29.1409 52.795 29.2409 52.355 29.2409 51.845ZM35.2819 48.98C35.5519 48.54 35.9019 48.195 36.3319 47.945C36.7719 47.695 37.2719 47.57 37.8319 47.57V49.775H37.2769C36.6169 49.775 36.1169 49.93 35.7769 50.24C35.4469 50.55 35.2819 51.09 35.2819 51.86V56H33.1819V47.69H35.2819V48.98Z" fill="#F7B81B"/>
<path d="M50.0055 48.77C50.0055 49.33 49.8705 49.855 49.6005 50.345C49.3405 50.835 48.9255 51.23 48.3555 51.53C47.7955 51.83 47.0855 51.98 46.2255 51.98H44.4705V56H42.3705V45.53H46.2255C47.0355 45.53 47.7255 45.67 48.2955 45.95C48.8655 46.23 49.2905 46.615 49.5705 47.105C49.8605 47.595 50.0055 48.15 50.0055 48.77ZM46.1355 50.285C46.7155 50.285 47.1455 50.155 47.4255 49.895C47.7055 49.625 47.8455 49.25 47.8455 48.77C47.8455 47.75 47.2755 47.24 46.1355 47.24H44.4705V50.285H46.1355ZM50.7315 51.815C50.7315 50.975 50.8965 50.23 51.2265 49.58C51.5665 48.93 52.0215 48.43 52.5915 48.08C53.1715 47.73 53.8165 47.555 54.5265 47.555C55.1465 47.555 55.6865 47.68 56.1465 47.93C56.6165 48.18 56.9915 48.495 57.2715 48.875V47.69H59.3865V56H57.2715V54.785C57.0015 55.175 56.6265 55.5 56.1465 55.76C55.6765 56.01 55.1315 56.135 54.5115 56.135C53.8115 56.135 53.1715 55.955 52.5915 55.595C52.0215 55.235 51.5665 54.73 51.2265 54.08C50.8965 53.42 50.7315 52.665 50.7315 51.815ZM57.2715 51.845C57.2715 51.335 57.1715 50.9 56.9715 50.54C56.7715 50.17 56.5015 49.89 56.1615 49.7C55.8215 49.5 55.4565 49.4 55.0665 49.4C54.6765 49.4 54.3165 49.495 53.9865 49.685C53.6565 49.875 53.3865 50.155 53.1765 50.525C52.9765 50.885 52.8765 51.315 52.8765 51.815C52.8765 52.315 52.9765 52.755 53.1765 53.135C53.3865 53.505 53.6565 53.79 53.9865 53.99C54.3265 54.19 54.6865 54.29 55.0665 54.29C55.4565 54.29 55.8215 54.195 56.1615 54.005C56.5015 53.805 56.7715 53.525 56.9715 53.165C57.1715 52.795 57.2715 52.355 57.2715 51.845ZM65.8175 47.57C66.8075 47.57 67.6075 47.885 68.2175 48.515C68.8275 49.135 69.1325 50.005 69.1325 51.125V56H67.0325V51.41C67.0325 50.75 66.8675 50.245 66.5375 49.895C66.2075 49.535 65.7575 49.355 65.1875 49.355C64.6075 49.355 64.1475 49.535 63.8075 49.895C63.4775 50.245 63.3125 50.75 63.3125 51.41V56H61.2125V47.69H63.3125V48.725C63.5925 48.365 63.9475 48.085 64.3775 47.885C64.8175 47.675 65.2975 47.57 65.8175 47.57ZM78.6295 51.665C78.6295 51.965 78.6095 52.235 78.5695 52.475H72.4945C72.5445 53.075 72.7545 53.545 73.1245 53.885C73.4945 54.225 73.9495 54.395 74.4895 54.395C75.2695 54.395 75.8245 54.06 76.1545 53.39H78.4195C78.1795 54.19 77.7195 54.85 77.0395 55.37C76.3595 55.88 75.5245 56.135 74.5345 56.135C73.7345 56.135 73.0145 55.96 72.3745 55.61C71.7445 55.25 71.2495 54.745 70.8895 54.095C70.5395 53.445 70.3645 52.695 70.3645 51.845C70.3645 50.985 70.5395 50.23 70.8895 49.58C71.2395 48.93 71.7295 48.43 72.3595 48.08C72.9895 47.73 73.7145 47.555 74.5345 47.555C75.3245 47.555 76.0295 47.725 76.6495 48.065C77.2795 48.405 77.7645 48.89 78.1045 49.52C78.4545 50.14 78.6295 50.855 78.6295 51.665ZM76.4545 51.065C76.4445 50.525 76.2495 50.095 75.8695 49.775C75.4895 49.445 75.0245 49.28 74.4745 49.28C73.9545 49.28 73.5145 49.44 73.1545 49.76C72.8045 50.07 72.5895 50.505 72.5095 51.065H76.4545ZM82.0373 44.9V56H79.9373V44.9H82.0373ZM94.3614 45.53V47.225H91.5714V56H89.4714V47.225H86.6814V45.53H94.3614ZM97.7686 48.98C98.0386 48.54 98.3886 48.195 98.8186 47.945C99.2586 47.695 99.7586 47.57 100.319 47.57V49.775H99.7636C99.1036 49.775 98.6036 49.93 98.2636 50.24C97.9336 50.55 97.7686 51.09 97.7686 51.86V56H95.6686V47.69H97.7686V48.98ZM100.968 51.815C100.968 50.975 101.133 50.23 101.463 49.58C101.803 48.93 102.258 48.43 102.828 48.08C103.408 47.73 104.053 47.555 104.763 47.555C105.383 47.555 105.923 47.68 106.383 47.93C106.853 48.18 107.228 48.495 107.508 48.875V47.69H109.623V56H107.508V54.785C107.238 55.175 106.863 55.5 106.383 55.76C105.913 56.01 105.368 56.135 104.748 56.135C104.048 56.135 103.408 55.955 102.828 55.595C102.258 55.235 101.803 54.73 101.463 54.08C101.133 53.42 100.968 52.665 100.968 51.815ZM107.508 51.845C107.508 51.335 107.408 50.9 107.208 50.54C107.008 50.17 106.738 49.89 106.398 49.7C106.058 49.5 105.693 49.4 105.303 49.4C104.913 49.4 104.553 49.495 104.223 49.685C103.893 49.875 103.623 50.155 103.413 50.525C103.213 50.885 103.113 51.315 103.113 51.815C103.113 52.315 103.213 52.755 103.413 53.135C103.623 53.505 103.893 53.79 104.223 53.99C104.563 54.19 104.923 54.29 105.303 54.29C105.693 54.29 106.058 54.195 106.398 54.005C106.738 53.805 107.008 53.525 107.208 53.165C107.408 52.795 107.508 52.355 107.508 51.845ZM110.909 51.815C110.909 50.975 111.074 50.23 111.404 49.58C111.744 48.93 112.204 48.43 112.784 48.08C113.364 47.73 114.009 47.555 114.719 47.555C115.259 47.555 115.774 47.675 116.264 47.915C116.754 48.145 117.144 48.455 117.434 48.845V44.9H119.564V56H117.434V54.77C117.174 55.18 116.809 55.51 116.339 55.76C115.869 56.01 115.324 56.135 114.704 56.135C114.004 56.135 113.364 55.955 112.784 55.595C112.204 55.235 111.744 54.73 111.404 54.08C111.074 53.42 110.909 52.665 110.909 51.815ZM117.449 51.845C117.449 51.335 117.349 50.9 117.149 50.54C116.949 50.17 116.679 49.89 116.339 49.7C115.999 49.5 115.634 49.4 115.244 49.4C114.854 49.4 114.494 49.495 114.164 49.685C113.834 49.875 113.564 50.155 113.354 50.525C113.154 50.885 113.054 51.315 113.054 51.815C113.054 52.315 113.154 52.755 113.354 53.135C113.564 53.505 113.834 53.79 114.164 53.99C114.504 54.19 114.864 54.29 115.244 54.29C115.634 54.29 115.999 54.195 116.339 54.005C116.679 53.805 116.949 53.525 117.149 53.165C117.349 52.795 117.449 52.355 117.449 51.845ZM122.455 46.7C122.085 46.7 121.775 46.585 121.525 46.355C121.285 46.115 121.165 45.82 121.165 45.47C121.165 45.12 121.285 44.83 121.525 44.6C121.775 44.36 122.085 44.24 122.455 44.24C122.825 44.24 123.13 44.36 123.37 44.6C123.62 44.83 123.745 45.12 123.745 45.47C123.745 45.82 123.62 46.115 123.37 46.355C123.13 46.585 122.825 46.7 122.455 46.7ZM123.49 47.69V56H121.39V47.69H123.49ZM129.945 47.57C130.935 47.57 131.735 47.885 132.345 48.515C132.955 49.135 133.26 50.005 133.26 51.125V56H131.16V51.41C131.16 50.75 130.995 50.245 130.665 49.895C130.335 49.535 129.885 49.355 129.315 49.355C128.735 49.355 128.275 49.535 127.935 49.895C127.605 50.245 127.44 50.75 127.44 51.41V56H125.34V47.69H127.44V48.725C127.72 48.365 128.075 48.085 128.505 47.885C128.945 47.675 129.425 47.57 129.945 47.57ZM138.287 47.555C138.907 47.555 139.452 47.68 139.922 47.93C140.392 48.17 140.762 48.485 141.032 48.875V47.69H143.147V56.06C143.147 56.83 142.992 57.515 142.682 58.115C142.372 58.725 141.907 59.205 141.287 59.555C140.667 59.915 139.917 60.095 139.037 60.095C137.857 60.095 136.887 59.82 136.127 59.27C135.377 58.72 134.952 57.97 134.852 57.02H136.937C137.047 57.4 137.282 57.7 137.642 57.92C138.012 58.15 138.457 58.265 138.977 58.265C139.587 58.265 140.082 58.08 140.462 57.71C140.842 57.35 141.032 56.8 141.032 56.06V54.77C140.762 55.16 140.387 55.485 139.907 55.745C139.437 56.005 138.897 56.135 138.287 56.135C137.587 56.135 136.947 55.955 136.367 55.595C135.787 55.235 135.327 54.73 134.987 54.08C134.657 53.42 134.492 52.665 134.492 51.815C134.492 50.975 134.657 50.23 134.987 49.58C135.327 48.93 135.782 48.43 136.352 48.08C136.932 47.73 137.577 47.555 138.287 47.555ZM141.032 51.845C141.032 51.335 140.932 50.9 140.732 50.54C140.532 50.17 140.262 49.89 139.922 49.7C139.582 49.5 139.217 49.4 138.827 49.4C138.437 49.4 138.077 49.495 137.747 49.685C137.417 49.875 137.147 50.155 136.937 50.525C136.737 50.885 136.637 51.315 136.637 51.815C136.637 52.315 136.737 52.755 136.937 53.135C137.147 53.505 137.417 53.79 137.747 53.99C138.087 54.19 138.447 54.29 138.827 54.29C139.217 54.29 139.582 54.195 139.922 54.005C140.262 53.805 140.532 53.525 140.732 53.165C140.932 52.795 141.032 52.355 141.032 51.845Z" fill="#1C7D33"/>
<path d="M26.9 12.06V33H22.7V19.38L17.09 33H13.91L8.27 19.38V33H4.07V12.06H8.84L15.5 27.63L22.16 12.06H26.9ZM45.8724 18.54C45.8724 19.66 45.6024 20.71 45.0624 21.69C44.5424 22.67 43.7124 23.46 42.5724 24.06C41.4524 24.66 40.0324 24.96 38.3124 24.96H34.8024V33H30.6024V12.06H38.3124C39.9324 12.06 41.3124 12.34 42.4524 12.9C43.5924 13.46 44.4424 14.23 45.0024 15.21C45.5824 16.19 45.8724 17.3 45.8724 18.54ZM38.1324 21.57C39.2924 21.57 40.1524 21.31 40.7124 20.79C41.2724 20.25 41.5524 19.5 41.5524 18.54C41.5524 16.5 40.4124 15.48 38.1324 15.48H34.8024V21.57H38.1324ZM59.2044 33L54.5844 24.84H52.6044V33H48.4044V12.06H56.2644C57.8844 12.06 59.2644 12.35 60.4044 12.93C61.5444 13.49 62.3944 14.26 62.9544 15.24C63.5344 16.2 63.8244 17.28 63.8244 18.48C63.8244 19.86 63.4244 21.11 62.6244 22.23C61.8244 23.33 60.6344 24.09 59.0544 24.51L64.0644 33H59.2044ZM52.6044 21.69H56.1144C57.2544 21.69 58.1044 21.42 58.6644 20.88C59.2244 20.32 59.5044 19.55 59.5044 18.57C59.5044 17.61 59.2244 16.87 58.6644 16.35C58.1044 15.81 57.2544 15.54 56.1144 15.54H52.6044V21.69ZM71.3731 29.67H78.2731V33H67.1731V12.06H71.3731V29.67Z" fill="#1A2054"/>
</svg>
