<?xml version="1.0" encoding="UTF-8"?>
<svg id="Layer_1" data-name="Layer 1" xmlns="http://www.w3.org/2000/svg" viewBox="0 0 1920 1080">
  <defs>
    <style>
      .cls-1 {
        fill: #f6921e;
        stroke-width: 0px;
      }

      .cls-2 {
        fill: none;
        stroke: #f6921e;
        stroke-miterlimit: 10;
        stroke-width: 30px;
      }
    </style>
  </defs>
  <g>
    <path class="cls-1" d="M570.36,682.74c12.3-5.49,26.41-1.76,32.73,12.41,6.12,13.73.04,27.01-12.68,32.68-12.04,5.36-26.39,1.02-32.48-12.66-6-13.46.37-27.05,12.43-32.43ZM587.93,722.73c9.63-4.29,15.91-14.43,10.85-25.79-4.96-11.12-15.92-13.57-25.99-9.09-9.34,4.16-15.53,14.35-10.44,25.78,4.71,10.57,15.91,13.41,25.58,9.1Z"/>
    <path class="cls-1" d="M588.46,661.77l-45.71,12.4-1.68-6.2c10.23-13.04,27.59-36.42,31.4-40.15l-.03-.13c-6.17,2.1-13.03,3.89-20.42,5.89l-18.88,5.12-1.32-4.88,45.71-12.4,1.6,5.9c-7.74,10.14-27.83,35.82-32.25,40.7l.04.13c5.86-1.95,12.33-3.7,20.41-5.89l19.83-5.38,1.32,4.88Z"/>
    <path class="cls-1" d="M548.08,574.68l3.56,28.78,17.87-2.21-3.91-31.68,4.72.2,4.47,36.2-47.05,5.82-4.4-35.57,4.62-.57,3.74,30.28,15.33-1.9-3.55-28.77,4.62-.57Z"/>
    <path class="cls-1" d="M552.14,488.87c-9-.79-17.51-1.54-22.28-2.23v.07c6.45,2.9,26.34,13.96,41.64,22.43l-.4,4.58c-13.11,4.17-37.54,12.21-44.79,14.22v.06c5.4.03,15.64.74,23.58,1.43l19.68,1.72-.43,5.01-47.19-4.13.67-7.59c16.3-5.61,38.26-12.83,42.14-13.89v-.07c-5.19-2.78-25.04-13.8-39.05-21.44l.68-7.71,47.19,4.13-.46,5.25-20.97-1.84Z"/>
    <path class="cls-1" d="M530.72,459.08l5.17-20.98c2.87-11.65,10.06-14.82,17.29-13.05,8.93,2.2,12.31,9.47,9.88,19.37l-3.97,16.12,18.93,4.66-1.27,5.2-46.01-11.33ZM554.5,459.43l3.74-15.17c1.66-6.77.92-12.06-6.3-13.84-5.64-1.39-9.75,1.68-11.65,9.43l-3.74,15.18,17.94,4.41Z"/>
    <path class="cls-1" d="M572.03,409.49l19.55,7.71-1.95,4.94-44.07-17.37,7.97-20.21c3.43-8.71,9.73-13.29,17.62-10.18,5.23,2.06,8.15,6.06,7.31,12.31,2.1-2.88,5.93-5.75,13.57-2.73l1.87.74c3.48,1.36,7.27,2.87,9.27,3.07l-2,5.06c-2.17-.11-5.67-1.65-9.09-2.99l-1.48-.59c-7.07-2.78-10.27-.83-13.46,7.25l-5.12,13ZM567.75,407.8l5.49-13.92c2.9-7.37,1.8-12.06-3.88-14.3-5.18-2.05-9.18.66-11.97,7.74l-5.59,14.2,15.96,6.29Z"/>
    <path class="cls-1" d="M568.1,351.89l2.54-4.63,37.39,20.54,14.04-25.54,3.7,3.03-16.15,29.41-41.52-22.8Z"/>
    <path class="cls-1" d="M634.73,308.44c5.77,2.37,11.76,1.73,17.93-5.81,6.25-7.63,5.68-13.24,1.97-16.27-3.91-3.2-8.08-3.09-17.89,5.49-10.41,9.08-15.93,9.13-20.94,5.03-6.2-5.07-5.07-13.94,1.31-21.73,9.61-11.74,17.94-9.32,21.83-6.82l-3.45,4.2c-3.35-1.38-8.25-2.64-14.97,5.56-4.56,5.57-5.71,10.89-1.66,14.21,3.24,2.66,6.6,2.91,15.19-4.65,12.85-11.25,18.67-10.03,23.67-5.94,5.69,4.66,6.92,13.29-1.81,23.97-8.11,9.9-16.9,11.36-24.68,7.01l3.49-4.26Z"/>
    <path class="cls-1" d="M693.91,232.17c9.09,9.93,10.01,24.49-1.43,34.95-11.09,10.14-25.61,8.57-35.01-1.7-8.89-9.72-9.3-24.7,1.74-34.81,10.87-9.94,25.78-8.2,34.69,1.55ZM661.54,261.47c7.11,7.78,18.71,10.53,27.88,2.14,8.98-8.22,7.84-19.39.4-27.52-6.9-7.54-18.51-10.2-27.74-1.76-8.52,7.81-7.69,19.33-.55,27.14Z"/>
    <path class="cls-1" d="M693.19,203.63l4.34-3,24.26,35.13,24-16.57,1.96,4.37-27.63,19.08-26.93-39.01Z"/>
    <path class="cls-1" d="M757.44,200.5l1.04,16.73-5,2.55-3.07-51.64,5.56-2.84,40.7,32.43-5.2,2.64-13.17-10.54-20.88,10.66ZM774.51,186.51c-11.73-9.4-17.21-13.78-19.58-16.05l-.06.03c.51,3.09,1.25,12.11,2.08,24.98l17.56-8.95Z"/>
    <path class="cls-1" d="M803.71,172.81l6.91,19.84-5.02,1.75-15.56-44.72,20.5-7.14c8.84-3.07,16.41-1.29,19.2,6.72,1.84,5.3.71,10.12-4.56,13.57,3.55-.29,8.22.74,10.92,8.51l.66,1.89c1.23,3.52,2.56,7.38,3.72,9.02l-5.14,1.79c-1.32-1.72-2.45-5.37-3.65-8.85l-.52-1.49c-2.5-7.18-6.06-8.34-14.26-5.48l-13.19,4.59ZM802.21,168.47l14.13-4.92c7.47-2.6,10.31-6.51,8.3-12.26-1.83-5.27-6.48-6.52-13.67-4.02l-14.4,5.02,5.64,16.18Z"/>
    <path class="cls-1" d="M868.84,127.09l21.39-3.01c11.88-1.67,17.5,3.82,18.54,11.2,1.29,9.11-4.2,14.94-14.3,16.37l-16.45,2.32,2.72,19.3-5.29.74-6.61-46.91ZM877.37,149.29l15.48-2.18c6.9-.97,11.53-3.64,10.5-10.99-.82-5.74-5.19-8.41-13.08-7.3l-15.48,2.18,2.58,18.3Z"/>
    <path class="cls-1" d="M971.63,144.2c-.07,13.47-9.27,24.77-24.78,24.69-15.02-.08-24.61-11.09-24.54-25,.07-13.17,9.94-24.44,24.9-24.37,14.72.07,24.49,11.47,24.42,24.67ZM927.98,143.73c-.05,10.53,6.58,20.43,19.02,20.5,12.16.06,18.91-8.91,18.97-19.93.06-10.21-6.67-20.05-19.16-20.11-11.56-.07-18.76,8.97-18.82,19.54Z"/>
    <path class="cls-1" d="M993.15,170.47l-6.35-49.33,5.56,1.02c1.53,12.35,4.86,37.85,4.84,43.61h.06c2.28-5.82,14.72-28.25,20.63-38.98l5.42.99c1.51,11.14,5.15,38.74,5.23,43.56l.08.02c2.72-6.3,15.01-28.49,20.77-38.85l5.31.96-24.33,43.76-5.8-1.06c-1.49-11.31-5.13-37.89-5.26-43.26l-.07-.02c-2.09,5.19-14.27,27.31-20.48,38.59l-5.61-1.01Z"/>
    <path class="cls-1" d="M1095.02,174.07l-27.31-9.67-6,16.96,30.07,10.65-2.29,4.12-34.37-12.16,15.81-44.66,33.77,11.94-1.56,4.38-28.73-10.16-5.15,14.55,27.32,9.67-1.56,4.39Z"/>
    <path class="cls-1" d="M1115,184.78l-9.55,18.72-4.73-2.41,21.52-42.21,19.36,9.87c8.34,4.26,12.29,10.97,8.43,18.52-2.55,5.01-6.81,7.53-12.96,6.11,2.66,2.37,5.15,6.45,1.41,13.77l-.91,1.79c-1.7,3.34-3.56,6.96-3.94,8.93l-4.85-2.48c.32-2.15,2.19-5.48,3.86-8.76l.73-1.42c3.45-6.78,1.83-10.15-5.92-14.1l-12.45-6.34ZM1117.08,180.68l13.34,6.81c7.06,3.59,11.84,2.94,14.62-2.5,2.53-4.96.22-9.2-6.56-12.65l-13.6-6.94-7.79,15.29Z"/>
    <path class="cls-1" d="M1205.57,253.21c-7.25,4.55-15.77,6.02-26.04-2.14-12.04-9.58-12.09-23.42-3.53-34.18,8.55-10.75,22.95-13.42,34.46-4.27,10.5,8.35,10.9,17.81,7.65,25.11l-4.32-3.43c1.65-5.84,1.28-12.07-6.28-18.09-8.95-7.12-19.76-4.99-26.95,4.06-7.03,8.84-6.9,20.2,2.07,27.32,7.46,5.93,12.98,5,18.72,2.25l4.22,3.36Z"/>
    <path class="cls-1" d="M1254.67,289.58c-9.87,9.16-24.42,10.2-34.97-1.17-10.23-11.01-8.77-25.54,1.43-35.01,9.66-8.97,24.63-9.49,34.83,1.48,10.02,10.8,8.39,25.71-1.28,34.7ZM1225.13,257.42c-7.72,7.18-10.4,18.79-1.93,27.9,8.28,8.91,19.44,7.69,27.52.19,7.5-6.94,10.06-18.58,1.55-27.74-7.87-8.48-19.39-7.55-27.14-.35Z"/>
    <path class="cls-1" d="M1264.7,308.05l-17.33,11.93-3.02-4.39,39.05-26.87,12.32,17.91c5.32,7.72,5.6,15.5-1.39,20.31-4.63,3.19-9.58,3.37-14.31-.8,1.22,3.34,1.45,8.12-5.32,12.79l-1.65,1.14c-3.08,2.12-6.45,4.43-7.73,5.98l-3.08-4.48c1.31-1.74,4.54-3.79,7.57-5.88l1.31-.9c6.27-4.31,6.44-8.06,1.51-15.23l-7.93-11.52ZM1268.49,305.45l8.49,12.34c4.49,6.52,9.01,8.23,14.04,4.76,4.6-3.16,4.58-7.99.26-14.26l-8.66-12.58-14.13,9.74Z"/>
    <path class="cls-1" d="M1314.8,337.01l9.77,19.28c5.42,10.7,2.04,17.8-4.61,21.18-8.21,4.15-15.51.85-20.13-8.26l-7.5-14.82-17.4,8.81-2.42-4.77,42.28-21.42ZM1296.53,352.26l7.07,13.95c3.15,6.22,7.17,9.75,13.8,6.39,5.18-2.62,6.29-7.63,2.69-14.74l-7.06-13.95-16.49,8.36Z"/>
    <path class="cls-1" d="M1331.86,440.03c-12.76,4.29-26.45-.77-31.37-15.48-4.77-14.25,2.55-26.88,15.74-31.3,12.5-4.18,26.36,1.51,31.11,15.7,4.68,13.98-2.95,26.9-15.48,31.08ZM1318.21,398.56c-10,3.34-17.22,12.83-13.27,24.62,3.87,11.54,14.54,15.02,25,11.52,9.69-3.25,16.83-12.79,12.86-24.64-3.67-10.97-14.55-14.87-24.58-11.5Z"/>
    <path class="cls-1" d="M1333.42,460.86l-20.71,3.72-.94-5.23,46.66-8.38,3.84,21.4c1.66,9.23-1.29,16.44-9.65,17.93-5.53.99-10.13-.88-12.7-6.64-.28,3.56-2.03,8.01-10.13,9.46l-1.97.36c-3.69.66-7.71,1.37-9.51,2.26l-.96-5.37c1.91-1.04,5.7-1.57,9.32-2.22l1.57-.28c7.49-1.34,9.19-4.68,7.65-13.25l-2.47-13.76ZM1337.95,460.05l2.65,14.74c1.4,7.8,4.81,11.22,10.83,10.14,5.48-.98,7.46-5.39,6.11-12.89l-2.7-15.03-16.89,3.04Z"/>
    <path class="cls-1" d="M1335.42,515.81l-15.62-6.07-.22-5.61,48.14,18.9.24,6.24-46.52,23.31-.22-5.83,15.09-7.53-.89-23.42ZM1340.95,537.18c13.46-6.7,19.73-9.83,22.79-11.03v-.06c-3.02-.84-11.52-3.96-23.55-8.61l.76,19.7Z"/>
    <path class="cls-1" d="M1362.59,570.65l1.34-18.41,4.69.35-3.08,42.18-4.68-.34,1.34-18.4-42.57-3.1.39-5.37,42.57,3.1Z"/>
    <path class="cls-1" d="M1362.15,614.13l-46.74-7.69.87-5.26,46.73,7.68-.86,5.27Z"/>
    <path class="cls-1" d="M1323.65,673.18c-12.96-3.58-21.48-15.4-17.36-30.33,3.99-14.47,17.1-20.87,30.51-17.17,12.69,3.5,20.99,15.95,17.02,30.37-3.91,14.2-17.44,20.64-30.16,17.13ZM1335.47,631.19c-10.15-2.8-21.42,1.02-24.73,13-3.23,11.72,3.67,20.57,14.28,23.49,9.84,2.71,21.08-1.2,24.4-13.25,3.07-11.14-3.77-20.44-13.96-23.25Z"/>
    <path class="cls-1" d="M1296.38,678.07l43.25,19.37-2.62,5.86c-16.19,3.61-44.44,10.72-49.76,11.19l-.06.12c6.11,2.28,12.55,5.25,19.54,8.38l17.87,8-2.07,4.61-43.25-19.37,2.5-5.57c12.43-2.95,44.26-10.11,50.77-11.09l.06-.12c-5.77-2.21-11.89-4.95-19.54-8.37l-18.76-8.4,2.07-4.61Z"/>
  </g>
  <g>
    <path class="cls-1" d="M851.25,897.9l-16.95-4.59-3.26,12.06,18.61,5.04-1.63,3.72-22.46-6.08,9.23-34.07,22.19,6.01-1.05,3.87-17.76-4.81-2.82,10.41,16.95,4.58-1.05,3.87Z"/>
    <path class="cls-1" d="M862.89,907.22c.18,4.34,2.62,7.11,7.66,8.03,5.42.98,8.03-1.16,8.63-4.45.63-3.49-.72-5.75-7.38-8.7-7.82-3.48-10.15-6.8-9.27-11.69.94-5.16,5.51-8.67,13.27-7.26,8.28,1.51,10.81,6.91,10.44,11.56l-4.69-.85c-.06-3.2-1.53-6.1-6.6-7.02-4.23-.77-6.96.71-7.56,4.01-.59,3.26,1.13,4.91,6.96,7.49,9.46,4.22,10.51,8.39,9.7,12.85-1.02,5.61-5.97,9.24-14.47,7.69-8.74-1.59-11.63-7.06-11.38-12.52l4.69.85Z"/>
    <path class="cls-1" d="M903.13,891.68l-11.35-1.15.41-3.99,27.41,2.78-.4,4-11.37-1.16-3.17,31.16-4.7-.47,3.17-31.16Z"/>
    <path class="cls-1" d="M918.65,924.43l.43-7.48,4.65.27-.43,7.48-4.65-.27Z"/>
    <path class="cls-1" d="M947.28,925.39v-.35c-.17-4.84,2.08-10.24,10.23-16.58,5.3-4.13,7.07-5.39,6.94-9.29-.12-3.62-2.5-6.22-6.53-6.09-4.37.14-6.23,2.72-6.8,6.8l-4.58.15c.37-5.79,4.03-10.54,11.26-10.77,7.97-.26,11.21,4.79,11.37,9.58.17,5.41-2.06,7.65-8.59,12.52-5.43,4.1-7.52,7.51-8.08,9.94l18.86-.61-.56,3.95-23.53.76Z"/>
    <path class="cls-1" d="M1001.76,903.52c.94,8.41-.45,18.66-10.23,19.75-9.38,1.04-13.25-7.79-14.25-16.79-.97-8.72,1.02-18.38,10.39-19.43,9.21-1.03,13.13,7.77,14.09,16.46ZM982.03,905.95c.74,6.67,3.1,14.14,9.09,13.47,6.03-.68,6.72-8.08,5.91-15.36-.76-6.76-2.94-13.85-8.9-13.19-6.04.68-6.96,7.38-6.1,15.07Z"/>
    <path class="cls-1" d="M1011.7,920.04l-.07-.33c-.9-4.76.48-10.44,7.55-17.97,4.6-4.9,6.14-6.42,5.42-10.26-.68-3.56-3.43-5.75-7.4-5-4.29.82-5.72,3.64-5.66,7.76l-4.5.85c-.53-5.77,2.34-11.03,9.45-12.39,7.84-1.49,11.82,3,12.71,7.71,1.02,5.31-.85,7.88-6.54,13.7-4.72,4.89-6.26,8.58-6.44,11.07l18.54-3.52.06,3.98-23.12,4.4Z"/>
    <path class="cls-1" d="M1042.03,913.88l-.08-.34c-1.05-4.72.16-10.45,6.99-18.2,4.44-5.04,5.94-6.61,5.1-10.42-.79-3.54-3.61-5.65-7.55-4.77-4.27.95-5.61,3.83-5.42,7.94l-4.47,1c-.71-5.75,2-11.1,9.07-12.67,7.79-1.74,11.91,2.63,12.95,7.31,1.17,5.28-.61,7.9-6.11,13.89-4.57,5.04-6,8.77-6.1,11.27l18.42-4.1.18,3.98-22.98,5.12Z"/>
  </g>
  <path class="cls-2" d="M1265.78,547.32c.34,31.74-3.94,62.44-12.2,91.44l-282.31-284.69c-12.8-12.91-33.67-12.91-46.47,0l-286.56,288.98c-8.76-29.21-13.47-60.18-13.47-92.25,0-175.77,141.48-318.49,316.77-320.5,177.45-2.03,322.36,139.57,324.25,317.01Z"/>
  <path class="cls-2" d="M1232.02,703.95l-.63,2.71c-1.17,5-5.63,8.54-10.77,8.54h-38.12c-2.95,0-5.78-1.18-7.86-3.27l-18.14-18.29-203.35-205.07c-4.33-4.37-11.39-4.37-15.71,0l-203.35,205.07-18.14,18.29c-2.08,2.1-4.91,3.27-7.86,3.27h-38.12c-5.14,0-9.6-3.54-10.77-8.54l-.63-2.71c-.87-3.71.23-7.61,2.92-10.31h0s23.3-23.5,23.3-23.5l252.66-254.79c4.33-4.37,11.39-4.37,15.71,0l249.08,251.18,26.87,27.11h0c2.68,2.71,3.79,6.6,2.92,10.31Z"/>
  <rect class="cls-1" x="911.57" y="644.92" width="66.62" height="74.84" rx="10.46" ry="10.46"/>
  <circle class="cls-2" cx="945.33" cy="536.32" r="491.45"/>
</svg>