<svg xmlns="http://www.w3.org/2000/svg" xmlns:xlink="http://www.w3.org/1999/xlink" width="1080" zoomAndPan="magnify" viewBox="0 0 810 809.999993" height="1080" preserveAspectRatio="xMidYMid meet" version="1.0"><defs><clipPath id="00812be37a"><path d="M 89 726 L 724 726 L 724 729 L 89 729 Z M 89 726 " clip-rule="nonzero"/></clipPath></defs><path fill="#d0eaff" d="M 109.136719 105.574219 L 397.972656 105.574219 L 397.972656 480.859375 L 109.136719 480.859375 Z M 109.136719 105.574219 " fill-opacity="1" fill-rule="nonzero"/><path fill="#ffffff" d="M 120.972656 120.34375 L 386.136719 120.34375 L 386.136719 466.09375 L 120.972656 466.09375 Z M 120.972656 120.34375 " fill-opacity="1" fill-rule="nonzero"/><path fill="#89cdff" d="M 219.367188 93.554688 L 287.742188 93.554688 C 291.777344 93.554688 295.023438 96.800781 295.023438 100.832031 L 295.023438 121.113281 C 295.023438 125.144531 291.777344 128.394531 287.742188 128.394531 L 219.367188 128.394531 C 215.332031 128.394531 212.085938 125.144531 212.085938 121.113281 L 212.085938 100.832031 C 212.085938 96.800781 215.332031 93.554688 219.367188 93.554688 Z M 219.367188 93.554688 " fill-opacity="1" fill-rule="nonzero"/><path fill="#89cdff" d="M 208.964844 120.332031 L 298.144531 120.332031 C 300.953125 120.332031 303.214844 122.59375 303.214844 125.402344 C 303.214844 128.210938 300.953125 130.472656 298.144531 130.472656 L 208.964844 130.472656 C 206.15625 130.472656 203.894531 128.210938 203.894531 125.402344 C 203.898438 122.59375 206.15625 120.332031 208.964844 120.332031 Z M 208.964844 120.332031 " fill-opacity="1" fill-rule="nonzero"/><path fill="#89cdff" d="M 253.519531 81.03125 C 247.859375 81.03125 243.285156 85.640625 243.285156 91.300781 C 243.285156 96.972656 247.882812 101.570312 253.554688 101.570312 C 259.226562 101.570312 263.824219 96.972656 263.824219 91.300781 C 263.824219 85.628906 259.226562 81.03125 253.554688 81.03125 C 253.542969 81.03125 253.53125 81.03125 253.519531 81.03125 Z M 253.507812 86.230469 C 253.523438 86.230469 253.539062 86.230469 253.554688 86.230469 C 256.355469 86.230469 258.625 88.5 258.625 91.300781 C 258.625 94.101562 256.355469 96.371094 253.554688 96.371094 C 250.753906 96.371094 248.484375 94.101562 248.484375 91.300781 C 248.484375 88.519531 250.726562 86.257812 253.507812 86.230469 Z M 253.507812 86.230469 " fill-opacity="1" fill-rule="nonzero"/><path fill="#89cdff" d="M 219.367188 93.554688 L 287.742188 93.554688 C 291.777344 93.554688 295.023438 96.800781 295.023438 100.832031 L 295.023438 121.113281 C 295.023438 125.144531 291.777344 128.394531 287.742188 128.394531 L 219.367188 128.394531 C 215.332031 128.394531 212.085938 125.144531 212.085938 121.113281 L 212.085938 100.832031 C 212.085938 96.800781 215.332031 93.554688 219.367188 93.554688 Z M 219.367188 93.554688 " fill-opacity="1" fill-rule="nonzero"/><path fill="#006eff" d="M 195.398438 148.898438 L 311.710938 148.898438 C 313.6875 148.898438 315.28125 150.488281 315.28125 152.46875 L 315.28125 162.355469 C 315.28125 164.335938 313.6875 165.925781 311.710938 165.925781 L 195.398438 165.925781 C 193.421875 165.925781 191.828125 164.335938 191.828125 162.355469 L 191.828125 152.46875 C 191.828125 150.488281 193.421875 148.898438 195.398438 148.898438 Z M 195.398438 148.898438 " fill-opacity="1" fill-rule="nonzero"/><path fill="#d0eaff" d="M 214.742188 180.402344 L 292.367188 180.402344 C 294.136719 180.402344 295.5625 181.824219 295.5625 183.59375 C 295.5625 185.363281 294.136719 186.785156 292.367188 186.785156 L 214.742188 186.785156 C 212.972656 186.785156 211.546875 185.363281 211.546875 183.59375 C 211.546875 181.824219 212.972656 180.402344 214.742188 180.402344 Z M 214.742188 180.402344 " fill-opacity="1" fill-rule="nonzero"/><path fill="#89cdff" d="M 143.785156 223.820312 L 364.90625 223.820312 C 366.675781 223.820312 368.097656 225.246094 368.097656 227.015625 C 368.097656 228.78125 366.675781 230.207031 364.90625 230.207031 L 143.785156 230.207031 C 142.015625 230.207031 140.589844 228.78125 140.589844 227.015625 C 140.589844 225.246094 142.015625 223.820312 143.785156 223.820312 Z M 143.785156 223.820312 " fill-opacity="1" fill-rule="nonzero"/><path fill="#89cdff" d="M 255.558594 245.660156 L 364.90625 245.660156 C 366.675781 245.660156 368.097656 247.085938 368.097656 248.855469 C 368.097656 250.621094 366.675781 252.046875 364.90625 252.046875 L 255.558594 252.046875 C 253.792969 252.046875 252.367188 250.621094 252.367188 248.855469 C 252.367188 247.085938 253.792969 245.660156 255.558594 245.660156 Z M 255.558594 245.660156 " fill-opacity="1" fill-rule="nonzero"/><path fill="#89cdff" d="M 255.558594 267.5 L 364.90625 267.5 C 366.675781 267.5 368.097656 268.925781 368.097656 270.695312 C 368.097656 272.464844 366.675781 273.886719 364.90625 273.886719 L 255.558594 273.886719 C 253.792969 273.886719 252.367188 272.464844 252.367188 270.695312 C 252.367188 268.925781 253.792969 267.5 255.558594 267.5 Z M 255.558594 267.5 " fill-opacity="1" fill-rule="nonzero"/><path fill="#89cdff" d="M 255.558594 303.382812 L 265.589844 303.382812 C 267.359375 303.382812 268.78125 304.804688 268.78125 306.574219 C 268.78125 308.34375 267.359375 309.769531 265.589844 309.769531 L 255.558594 309.769531 C 253.792969 309.769531 252.367188 308.34375 252.367188 306.574219 C 252.367188 304.804688 253.792969 303.382812 255.558594 303.382812 Z M 255.558594 303.382812 " fill-opacity="1" fill-rule="nonzero"/><path fill="#89cdff" d="M 255.558594 325.222656 L 265.589844 325.222656 C 267.359375 325.222656 268.78125 326.644531 268.78125 328.414062 C 268.78125 330.183594 267.359375 331.605469 265.589844 331.605469 L 255.558594 331.605469 C 253.792969 331.605469 252.367188 330.183594 252.367188 328.414062 C 252.367188 326.644531 253.792969 325.222656 255.558594 325.222656 Z M 255.558594 325.222656 " fill-opacity="1" fill-rule="nonzero"/><path fill="#89cdff" d="M 255.558594 347.0625 L 265.589844 347.0625 C 267.359375 347.0625 268.78125 348.484375 268.78125 350.253906 C 268.78125 352.023438 267.359375 353.449219 265.589844 353.449219 L 255.558594 353.449219 C 253.792969 353.449219 252.367188 352.023438 252.367188 350.253906 C 252.367188 348.484375 253.792969 347.0625 255.558594 347.0625 Z M 255.558594 347.0625 " fill-opacity="1" fill-rule="nonzero"/><path fill="#d0eaff" d="M 139.957031 246.578125 L 236.660156 246.578125 L 236.660156 321.957031 L 139.957031 321.957031 Z M 139.957031 246.578125 " fill-opacity="1" fill-rule="nonzero"/><path fill="#ffffff" d="M 147.628906 254.117188 L 147.628906 300.488281 C 163.070312 291.558594 184.53125 278.921875 184.53125 278.921875 L 208.964844 303.359375 L 228.988281 291.796875 L 228.988281 254.117188 Z M 210.742188 273.238281 C 214.335938 273.238281 217.246094 276.148438 217.246094 279.742188 C 217.246094 283.332031 214.335938 286.238281 210.742188 286.238281 C 207.15625 286.238281 204.246094 283.332031 204.246094 279.742188 C 204.246094 276.152344 207.15625 273.238281 210.742188 273.238281 Z M 210.742188 273.238281 " fill-opacity="1" fill-rule="nonzero"/><path fill="#d0eaff" d="M 281.300781 303.382812 L 359.445312 303.382812 C 361.214844 303.382812 362.640625 304.804688 362.640625 306.574219 C 362.640625 308.34375 361.214844 309.769531 359.445312 309.769531 L 281.300781 309.769531 C 279.53125 309.769531 278.105469 308.34375 278.105469 306.574219 C 278.105469 304.804688 279.53125 303.382812 281.300781 303.382812 Z M 281.300781 303.382812 " fill-opacity="1" fill-rule="nonzero"/><path fill="#d0eaff" d="M 281.300781 325.222656 L 312.910156 325.222656 C 314.675781 325.222656 316.101562 326.644531 316.101562 328.414062 C 316.101562 330.183594 314.675781 331.605469 312.910156 331.605469 L 281.300781 331.605469 C 279.53125 331.605469 278.105469 330.183594 278.105469 328.414062 C 278.105469 326.644531 279.53125 325.222656 281.300781 325.222656 Z M 281.300781 325.222656 " fill-opacity="1" fill-rule="nonzero"/><path fill="#d0eaff" d="M 281.300781 347.0625 L 359.445312 347.0625 C 361.214844 347.0625 362.640625 348.484375 362.640625 350.253906 C 362.640625 352.023438 361.214844 353.449219 359.445312 353.449219 L 281.300781 353.449219 C 279.53125 353.449219 278.105469 352.023438 278.105469 350.253906 C 278.105469 348.484375 279.53125 347.0625 281.300781 347.0625 Z M 281.300781 347.0625 " fill-opacity="1" fill-rule="nonzero"/><path fill="#d0eaff" d="M 255.558594 379.824219 L 265.589844 379.824219 C 267.359375 379.824219 268.78125 381.246094 268.78125 383.015625 C 268.78125 384.785156 267.359375 386.207031 265.589844 386.207031 L 255.558594 386.207031 C 253.792969 386.207031 252.367188 384.785156 252.367188 383.015625 C 252.367188 381.246094 253.792969 379.824219 255.558594 379.824219 Z M 255.558594 379.824219 " fill-opacity="1" fill-rule="nonzero"/><path fill="#d0eaff" d="M 255.558594 401.664062 L 265.589844 401.664062 C 267.359375 401.664062 268.78125 403.085938 268.78125 404.855469 C 268.78125 406.625 267.359375 408.050781 265.589844 408.050781 L 255.558594 408.050781 C 253.792969 408.050781 252.367188 406.625 252.367188 404.855469 C 252.367188 403.085938 253.792969 401.664062 255.558594 401.664062 Z M 255.558594 401.664062 " fill-opacity="1" fill-rule="nonzero"/><path fill="#d0eaff" d="M 255.558594 423.503906 L 265.589844 423.503906 C 267.359375 423.503906 268.78125 424.925781 268.78125 426.695312 C 268.78125 428.464844 267.359375 429.890625 265.589844 429.890625 L 255.558594 429.890625 C 253.792969 429.890625 252.367188 428.464844 252.367188 426.695312 C 252.367188 424.925781 253.792969 423.503906 255.558594 423.503906 Z M 255.558594 423.503906 " fill-opacity="1" fill-rule="nonzero"/><path fill="#89cdff" d="M 281.300781 379.824219 L 359.445312 379.824219 C 361.214844 379.824219 362.640625 381.246094 362.640625 383.015625 C 362.640625 384.785156 361.214844 386.207031 359.445312 386.207031 L 281.300781 386.207031 C 279.53125 386.207031 278.105469 384.785156 278.105469 383.015625 C 278.105469 381.246094 279.53125 379.824219 281.300781 379.824219 Z M 281.300781 379.824219 " fill-opacity="1" fill-rule="nonzero"/><path fill="#89cdff" d="M 281.300781 401.664062 L 312.910156 401.664062 C 314.675781 401.664062 316.101562 403.085938 316.101562 404.855469 C 316.101562 406.625 314.675781 408.050781 312.910156 408.050781 L 281.300781 408.050781 C 279.53125 408.050781 278.105469 406.625 278.105469 404.855469 C 278.105469 403.085938 279.53125 401.664062 281.300781 401.664062 Z M 281.300781 401.664062 " fill-opacity="1" fill-rule="nonzero"/><path fill="#89cdff" d="M 281.300781 423.503906 L 359.445312 423.503906 C 361.214844 423.503906 362.640625 424.925781 362.640625 426.695312 C 362.640625 428.464844 361.214844 429.890625 359.445312 429.890625 L 281.300781 429.890625 C 279.53125 429.890625 278.105469 428.464844 278.105469 426.695312 C 278.105469 424.925781 279.53125 423.503906 281.300781 423.503906 Z M 281.300781 423.503906 " fill-opacity="1" fill-rule="nonzero"/><path fill="#d0eaff" d="M 143.785156 201.980469 L 364.90625 201.980469 C 366.675781 201.980469 368.097656 203.40625 368.097656 205.171875 C 368.097656 206.941406 366.675781 208.367188 364.90625 208.367188 L 143.785156 208.367188 C 142.015625 208.367188 140.589844 206.941406 140.589844 205.171875 C 140.589844 203.40625 142.015625 201.980469 143.785156 201.980469 Z M 143.785156 201.980469 " fill-opacity="1" fill-rule="nonzero"/><g clip-path="url(#00812be37a)"><path fill="#d0eaff" d="M 90.914062 726.074219 C 90.097656 726.074219 89.4375 726.734375 89.4375 727.550781 C 89.4375 728.363281 90.097656 729.023438 90.914062 729.023438 L 722.109375 729.023438 C 722.925781 729.023438 723.585938 728.363281 723.585938 727.550781 C 723.585938 726.734375 722.925781 726.074219 722.109375 726.074219 Z M 90.914062 726.074219 " fill-opacity="1" fill-rule="nonzero"/></g><path fill="#ffd2c0" d="M 519.167969 262.261719 L 500.875 296.730469 C 500.875 296.730469 494.441406 310.804688 502.6875 320.257812 C 510.929688 329.707031 528.625 327.292969 536.464844 317.441406 C 544.308594 307.589844 552.757812 297.8125 552.757812 297.8125 L 555.316406 294.367188 C 555.316406 294.363281 558.804688 266.941406 519.167969 262.261719 Z M 519.167969 262.261719 " fill-opacity="1" fill-rule="nonzero"/><path fill="#ffd2c0" d="M 500.257812 696.382812 L 504.367188 678.285156 C 516.386719 670.148438 528.695312 675.480469 540.953125 678.285156 L 533.78125 696.382812 C 533.78125 696.382812 509.761719 701.347656 500.257812 696.382812 Z M 500.257812 696.382812 " fill-opacity="1" fill-rule="nonzero"/><path fill="#006eff" d="M 500.257812 696.382812 L 497.980469 705.511719 C 497.980469 705.511719 472.699219 719.398438 468.625 721.605469 C 466.148438 723.15625 467.871094 726.039062 469.398438 726.039062 L 519.785156 726.039062 C 526.101562 726.039062 528.726562 722.910156 528.726562 717.097656 L 533.78125 696.382812 Z M 500.257812 696.382812 " fill-opacity="1" fill-rule="nonzero"/><path fill="#000080" d="M 485.316406 712.460938 C 478.28125 716.324219 470.738281 720.460938 468.625 721.605469 C 466.148438 723.15625 467.871094 726.039062 469.398438 726.039062 L 519.785156 726.039062 C 526.03125 726.039062 528.660156 722.976562 528.71875 717.296875 L 494.140625 717.296875 Z M 485.316406 712.460938 " fill-opacity="1" fill-rule="nonzero"/><path fill="#ffffff" d="M 488.019531 709.324219 C 487.722656 709.339844 487.457031 709.503906 487.316406 709.765625 C 487.097656 710.175781 487.25 710.6875 487.660156 710.910156 L 491.886719 713.195312 C 492.296875 713.414062 492.808594 713.261719 493.03125 712.851562 C 493.253906 712.441406 493.097656 711.929688 492.6875 711.710938 L 488.460938 709.425781 C 488.328125 709.351562 488.171875 709.316406 488.019531 709.324219 Z M 488.019531 709.324219 " fill-opacity="1" fill-rule="nonzero"/><path fill="#ffffff" d="M 493.316406 706.300781 C 493.019531 706.316406 492.753906 706.484375 492.613281 706.742188 C 492.390625 707.152344 492.542969 707.664062 492.957031 707.886719 L 497.183594 710.171875 C 497.589844 710.394531 498.105469 710.242188 498.324219 709.832031 C 498.324219 709.832031 498.324219 709.832031 498.328125 709.828125 C 498.546875 709.417969 498.394531 708.90625 497.984375 708.6875 L 493.757812 706.402344 C 493.625 706.328125 493.46875 706.292969 493.316406 706.300781 Z M 493.316406 706.300781 " fill-opacity="1" fill-rule="nonzero"/><path fill="#ffd2c0" d="M 654.867188 676.75 C 660.128906 676.832031 665.359375 677.707031 670.5625 679.117188 L 670.800781 693.914062 L 639.984375 693.914062 L 638.972656 679.117188 C 644.3125 677.371094 649.605469 676.667969 654.867188 676.75 Z M 654.867188 676.75 " fill-opacity="1" fill-rule="nonzero"/><path fill="#ffffff" d="M 639.789062 691.0625 L 640.1875 696.890625 L 670.847656 696.890625 L 670.753906 691.0625 Z M 639.789062 691.0625 " fill-opacity="1" fill-rule="nonzero"/><path fill="#ff9aa6" d="M 638.972656 679.117188 L 670.5625 679.117188 L 670.6875 684.699219 Z M 638.972656 679.117188 " fill-opacity="1" fill-rule="nonzero"/><path fill="#006eff" d="M 670.847656 696.890625 L 673.449219 719.324219 C 673.449219 719.324219 674.726562 726.042969 669.5625 726.042969 L 626.980469 726.042969 C 626.980469 726.042969 624.628906 725.398438 626.511719 721.90625 C 628.394531 718.417969 636.78125 712.679688 636.78125 712.679688 L 638.976562 696.890625 C 650.761719 695.214844 660.699219 696.207031 670.847656 696.890625 Z M 670.847656 696.890625 " fill-opacity="1" fill-rule="nonzero"/><path fill="#000080" d="M 650.609375 713.515625 L 658.085938 717.425781 L 673.265625 717.425781 L 673.449219 719.324219 C 673.449219 719.324219 674.730469 726.042969 669.5625 726.042969 L 626.980469 726.042969 C 626.980469 726.042969 624.628906 725.398438 626.511719 721.90625 C 628.398438 718.417969 636.78125 712.679688 636.78125 712.679688 L 646.738281 712.679688 C 647.960938 712.726562 649.214844 712.882812 650.609375 713.515625 Z M 650.609375 713.515625 " fill-opacity="1" fill-rule="nonzero"/><path fill="#ffffff" d="M 641.53125 702.316406 L 649.558594 702.324219 C 650.015625 702.324219 650.453125 702.695312 650.535156 703.152344 C 650.617188 703.609375 650.3125 703.984375 649.855469 703.980469 L 641.828125 703.972656 C 641.367188 703.972656 640.933594 703.601562 640.847656 703.144531 C 640.765625 702.683594 641.074219 702.3125 641.53125 702.316406 Z M 641.53125 702.316406 " fill-opacity="1" fill-rule="nonzero"/><path fill="#ffffff" d="M 640.039062 707.203125 L 648.066406 707.210938 C 648.523438 707.210938 648.960938 707.582031 649.042969 708.039062 C 649.128906 708.5 648.820312 708.871094 648.363281 708.867188 L 640.335938 708.859375 C 639.875 708.859375 639.441406 708.488281 639.355469 708.03125 C 639.273438 707.570312 639.582031 707.199219 640.039062 707.203125 Z M 640.039062 707.203125 " fill-opacity="1" fill-rule="nonzero"/><path fill="#ffffff" d="M 639.789062 691.0625 L 638.976562 696.890625 L 670.847656 696.890625 L 670.757812 691.0625 Z M 639.789062 691.0625 " fill-opacity="1" fill-rule="nonzero"/><path fill="#000080" d="M 559.726562 314.207031 C 559.726562 314.207031 555.734375 317.742188 556.136719 323.171875 C 556.539062 328.601562 558.148438 339.660156 558.148438 339.660156 C 548.558594 396.085938 537.765625 447.191406 527.75 506.632812 C 519.339844 556.554688 507.625 621.726562 502.949219 661.796875 C 495.566406 669.472656 498.257812 672.800781 504.367188 678.285156 L 540.953125 678.285156 C 546.96875 673.832031 548.445312 672.636719 545.890625 662.722656 C 545.890625 654.878906 618.476562 411.199219 618.476562 411.199219 C 624.589844 493.164062 635.035156 577.675781 635.195312 658.792969 C 631.558594 667.496094 630.6875 670.644531 638.964844 679.113281 L 670.558594 679.113281 C 678.050781 673.007812 676.636719 667.097656 675.441406 658.792969 C 671.597656 631.972656 688.824219 440.898438 686.125 402.578125 C 683.28125 362.195312 682.246094 323.882812 665.488281 314.207031 C 648.734375 304.53125 576.382812 303.230469 559.726562 314.207031 Z M 559.726562 314.207031 " fill-opacity="1" fill-rule="nonzero"/><path fill="#006eff" d="M 642.902344 179.9375 L 593.847656 182.355469 L 560.4375 198.707031 C 560.4375 198.707031 552.15625 202.125 543.339844 214.921875 C 536.558594 224.765625 519.347656 254.730469 519.347656 254.730469 C 519.347656 254.730469 515.292969 255.796875 513.871094 261.058594 C 512.449219 266.316406 515.078125 269.945312 515.078125 269.945312 L 518.167969 264.605469 C 541.960938 267.542969 538.75 285.941406 555.316406 294.363281 L 552.757812 297.8125 C 552.757812 297.8125 556.554688 299.742188 559.453125 298.820312 C 559.164062 300 558.628906 301.480469 557.734375 303.644531 C 554.320312 311.890625 559.722656 314.207031 559.722656 314.207031 C 605.503906 320.90625 637.25 318.671875 665.488281 314.207031 C 665.488281 314.207031 672.902344 314.734375 674.179688 309.1875 C 675.460938 303.644531 667.78125 304.210938 667.070312 290.988281 C 666.765625 285.277344 667.359375 281.105469 668.535156 276.890625 C 668.773438 277.246094 669.042969 277.605469 669.351562 277.964844 C 672.953125 282.179688 677.507812 282.050781 677.507812 282.050781 L 674.796875 276.390625 C 696.871094 259.0625 701.855469 271.679688 720.941406 261.652344 L 722.53125 266.40625 C 722.53125 266.40625 732.683594 260.257812 726.886719 254.894531 C 724.960938 253.113281 722.1875 252.5 720.742188 249.433594 C 719.195312 246.144531 717.488281 241.632812 714.683594 234.878906 C 711.070312 226.171875 708.457031 205.917969 691.980469 198.503906 C 691.886719 198.464844 691.792969 198.429688 691.699219 198.390625 C 691.394531 198.179688 691.070312 198.011719 690.726562 197.894531 C 653.53125 183.210938 642.902344 179.9375 642.902344 179.9375 Z M 642.902344 179.9375 " fill-opacity="1" fill-rule="nonzero"/><path fill="#004ad9" d="M 554.570312 233.699219 C 552.359375 240.902344 550.878906 250.152344 551.335938 261.8125 C 551.839844 274.460938 550.507812 283.335938 548.578125 289.539062 C 550.433594 291.339844 552.609375 292.988281 555.320312 294.363281 L 552.757812 297.8125 C 552.757812 297.8125 556.558594 299.742188 559.457031 298.820312 C 560.273438 295.5 559.105469 294.609375 558.160156 288 C 557.207031 281.308594 554.980469 253.109375 554.570312 233.699219 Z M 554.570312 233.699219 " fill-opacity="1" fill-rule="nonzero"/><path fill="#004ad9" d="M 523.1875 247.777344 C 520.960938 251.796875 519.347656 254.730469 519.347656 254.730469 C 519.347656 254.730469 522.402344 253.519531 530.792969 257.429688 C 539.179688 261.339844 543.585938 266.671875 543.871094 266.601562 C 544.136719 266.535156 534.933594 251.929688 523.1875 247.777344 Z M 523.1875 247.777344 " fill-opacity="1" fill-rule="nonzero"/><path fill="#004ad9" d="M 659.664062 239.199219 C 659.664062 239.199219 660.589844 273.136719 660.589844 276.640625 C 660.589844 278.75 661.347656 284.035156 661.953125 287.9375 C 661.546875 288.101562 661.246094 288.226562 660.816406 288.402344 C 636.929688 298.070312 597.261719 300.488281 597.261719 300.488281 L 669.597656 300.488281 C 668.613281 298.816406 667.742188 296.617188 667.308594 293.5 C 667.285156 293.304688 667.257812 293.105469 667.234375 292.90625 C 667.214844 292.722656 667.191406 292.539062 667.175781 292.347656 C 667.164062 292.285156 667.164062 292.222656 667.160156 292.160156 C 667.144531 292.007812 667.128906 291.851562 667.117188 291.695312 C 667.105469 291.539062 667.097656 291.382812 667.085938 291.226562 C 667.085938 291.144531 667.074219 291.066406 667.070312 290.988281 C 667.070312 290.949219 667.070312 290.910156 667.058594 290.871094 C 667.039062 290.464844 667.019531 290.066406 667.011719 289.675781 C 667.011719 289.632812 667.011719 289.589844 667.011719 289.546875 C 666.976562 288.246094 666.992188 287.027344 667.046875 285.863281 C 667.210938 282.566406 667.738281 279.738281 668.535156 276.886719 C 668.535156 276.886719 666.1875 273.5 667.179688 269.734375 C 667.179688 269.734375 667.917969 266.472656 676.015625 261.675781 C 684.113281 256.875 691.121094 256.234375 691.222656 255.953125 C 691.320312 255.695312 675.992188 251.417969 665.769531 258.894531 Z M 667.050781 285.863281 C 667.050781 285.863281 667.0625 285.863281 667.0625 285.863281 Z M 667.050781 285.863281 " fill-opacity="1" fill-rule="nonzero"/><path fill="#ffffff" d="M 663.378906 187.308594 C 656.96875 189.910156 651.351562 193.804688 645.566406 197.683594 C 635.554688 204.398438 625.019531 211.082031 608.707031 211.3125 C 592.398438 211.546875 583.9375 205.007812 579.445312 198.429688 C 577.707031 195.886719 576.578125 193.339844 575.839844 191.167969 L 574.757812 191.699219 C 575.527344 193.929688 576.691406 196.523438 578.457031 199.105469 C 583.136719 205.960938 592.085938 212.746094 608.726562 212.511719 C 625.359375 212.273438 636.207031 205.402344 646.234375 198.679688 C 652.410156 194.535156 658.277344 190.460938 665.046875 187.941406 C 664.496094 187.734375 663.90625 187.507812 663.378906 187.308594 Z M 677.820312 192.839844 C 675.515625 194.855469 673.347656 197.34375 671.742188 200.417969 C 669.671875 204.390625 665.132812 208.238281 659.210938 211.628906 C 653.285156 215.019531 645.996094 217.964844 638.480469 220.25 C 623.445312 224.8125 607.421875 226.675781 599.769531 224.425781 C 592.042969 222.152344 583.804688 214.902344 576.035156 209.066406 C 572.152344 206.148438 568.378906 203.585938 564.753906 202.191406 C 561.300781 200.863281 557.925781 200.625 554.878906 202.261719 C 553.664062 203.222656 552.300781 204.410156 550.835938 205.863281 C 552.304688 205.117188 553.722656 204.347656 555.042969 203.542969 C 557.84375 201.84375 560.898438 201.992188 564.320312 203.308594 C 567.746094 204.625 571.460938 207.128906 575.316406 210.023438 C 583.027344 215.816406 591.269531 223.171875 599.433594 225.570312 C 607.671875 227.996094 623.65625 226 638.828125 221.390625 C 646.410156 219.089844 653.769531 216.117188 659.800781 212.667969 C 665.832031 209.214844 670.550781 205.292969 672.804688 200.96875 C 674.433594 197.84375 676.695312 195.339844 679.089844 193.332031 C 678.675781 193.171875 678.226562 193 677.820312 192.839844 Z M 699.191406 216.027344 C 697.601562 216.039062 695.992188 216.40625 694.136719 217.042969 C 689.890625 218.496094 684.21875 221.28125 673.738281 224.425781 C 663.171875 227.59375 656.796875 231.074219 650.980469 234.347656 C 645.160156 237.621094 639.914062 240.683594 631.449219 243.117188 C 614.503906 247.992188 595.84375 248.015625 575.421875 232.929688 C 564.984375 225.21875 554.378906 225.15625 545.835938 225.859375 C 542.0625 226.171875 538.683594 226.625 535.90625 226.648438 C 535.664062 227.042969 535.425781 227.4375 535.183594 227.839844 C 538.242188 227.902344 541.878906 227.390625 545.933594 227.054688 C 554.390625 226.359375 564.582031 226.410156 574.710938 233.890625 C 595.414062 249.183594 614.609375 249.207031 631.78125 244.265625 C 640.375 241.792969 645.757812 238.660156 651.566406 235.390625 C 657.375 232.121094 663.621094 228.710938 674.082031 225.570312 C 684.636719 222.402344 690.414062 219.578125 694.523438 218.171875 C 698.632812 216.765625 700.941406 216.695312 705.171875 218.980469 C 706.773438 219.847656 708.554688 220.832031 710.40625 221.914062 C 710.203125 221.335938 709.996094 220.753906 709.777344 220.167969 C 708.359375 219.359375 706.996094 218.601562 705.742188 217.925781 C 703.257812 216.585938 701.238281 216.011719 699.191406 216.027344 Z M 539.453125 233.179688 C 537.105469 233.175781 534.53125 233.65625 531.628906 234.71875 C 531.390625 234.804688 531.148438 234.886719 530.90625 234.972656 C 530.589844 235.503906 530.277344 236.035156 529.960938 236.5625 C 530.660156 236.332031 531.351562 236.09375 532.039062 235.84375 C 540.1875 232.859375 545.160156 234.53125 550.382812 238.808594 C 555.609375 243.089844 560.953125 250.058594 569.292969 257.460938 C 586.113281 272.386719 606.78125 267.40625 614.660156 266.015625 C 622.488281 264.636719 649.683594 262.289062 663.515625 263.117188 C 667.109375 263.332031 669.429688 262.429688 670.972656 260.800781 C 672.511719 259.175781 673.269531 256.9375 674.089844 254.515625 C 675.726562 249.671875 677.503906 244.03125 685.386719 240.261719 C 693.171875 236.535156 705.308594 238.210938 715.109375 239.960938 C 715.726562 240.070312 716.300781 240.175781 716.898438 240.285156 C 716.722656 239.855469 716.546875 239.425781 716.363281 238.972656 C 716.007812 238.90625 715.679688 238.847656 715.316406 238.78125 C 705.484375 237.027344 693.207031 235.191406 684.867188 239.179688 C 676.625 243.125 674.589844 249.296875 672.957031 254.132812 C 672.136719 256.546875 671.394531 258.617188 670.101562 259.980469 C 668.8125 261.34375 666.964844 262.121094 663.585938 261.921875 C 649.53125 261.082031 622.515625 263.414062 614.453125 264.835938 C 606.445312 266.25 586.449219 271.082031 570.089844 256.566406 C 561.839844 249.242188 556.550781 242.3125 551.144531 237.882812 C 547.59375 234.980469 543.9375 233.191406 539.453125 233.179688 Z M 522.246094 249.710938 C 521.898438 250.3125 521.925781 250.269531 521.628906 250.777344 C 537.296875 255.5625 553.800781 259.425781 569.496094 275.65625 C 578.785156 285.265625 580.613281 290.761719 584.605469 293.769531 C 586.597656 295.277344 589.097656 296.050781 593.117188 296.300781 C 597.140625 296.546875 602.730469 296.285156 611.09375 295.699219 C 644.550781 293.359375 662.109375 288.515625 662.109375 288.515625 C 662.140625 288.507812 662.171875 288.496094 662.203125 288.484375 C 662.203125 288.484375 664.105469 287.621094 667.003906 287.1875 C 667.015625 286.777344 667.027344 286.371094 667.042969 285.972656 C 664.015625 286.398438 661.980469 287.273438 661.761719 287.371094 C 661.589844 287.417969 644.21875 292.183594 611.011719 294.507812 C 602.660156 295.089844 597.09375 295.347656 593.191406 295.105469 C 589.289062 294.867188 587.097656 294.152344 585.324219 292.816406 C 581.773438 290.136719 579.75 284.539062 570.351562 274.824219 C 554.519531 258.453125 537.8125 254.445312 522.246094 249.710938 Z M 522.246094 249.710938 " fill-opacity="0.4" fill-rule="nonzero"/><path fill="#000080" d="M 587.386719 115.664062 C 587.386719 115.664062 585.210938 122.078125 590.023438 126.757812 C 594.835938 131.433594 594.871094 109.519531 587.386719 115.664062 Z M 587.386719 115.664062 " fill-opacity="1" fill-rule="nonzero"/><path fill="#000080" d="M 633.230469 129.597656 C 633.230469 129.597656 633.03125 134.0625 633.28125 137.949219 C 633.53125 141.835938 631.648438 140.921875 631.648438 140.921875 L 628.890625 131.6875 Z M 633.230469 129.597656 " fill-opacity="1" fill-rule="nonzero"/><path fill="#ffd2c0" d="M 630.960938 132.375 L 635.5625 176.640625 C 635.5625 176.640625 634.554688 199.5625 615.453125 203.382812 C 596.351562 207.207031 596.953125 186.792969 596.953125 186.792969 C 596.953125 186.792969 602.484375 175.332031 603.691406 159.847656 C 604.898438 144.367188 630.960938 132.375 630.960938 132.375 Z M 630.960938 132.375 " fill-opacity="1" fill-rule="nonzero"/><path fill="#ff9aa6" d="M 625.003906 137.832031 L 615.503906 142.066406 C 609.640625 146.816406 604.226562 152.988281 603.691406 159.851562 C 603.433594 163.171875 602.96875 166.289062 602.410156 169.167969 C 628.691406 162.578125 625.003906 137.832031 625.003906 137.832031 Z M 625.003906 137.832031 " fill-opacity="1" fill-rule="nonzero"/><path fill="#ffd2c0" d="M 629.253906 128.238281 C 630.707031 136.980469 627.832031 147.875 621.351562 154.691406 C 616.832031 159.441406 611.808594 161.191406 607.464844 161.914062 C 598.011719 163.484375 593.429688 149.4375 590.964844 134.601562 C 590.679688 132.894531 589.632812 125.878906 589.582031 124.226562 C 589.179688 111.5 596.289062 106.113281 605.648438 104.558594 C 622.394531 101.777344 626.792969 113.40625 629.253906 128.238281 Z M 629.253906 128.238281 " fill-opacity="1" fill-rule="nonzero"/><path fill="#000080" d="M 628.671875 125.164062 C 628.671875 125.164062 627.054688 126.898438 623.328125 122.691406 C 619.601562 118.480469 621.058594 111.441406 619.894531 109.617188 C 618.726562 107.792969 614.464844 110.402344 610.871094 109.949219 C 602.480469 108.894531 599.632812 110.71875 596.351562 113.671875 C 589.769531 119.59375 583.574219 116.152344 582.898438 113.816406 C 582.222656 111.476562 583.917969 112.566406 585.214844 109.539062 C 586.515625 106.511719 585.503906 99.113281 596.082031 96.851562 C 606.660156 94.589844 621.640625 93.175781 625.128906 101.171875 C 628.621094 109.167969 629.992188 101.882812 633.121094 110.300781 C 636.25 118.714844 628.671875 125.164062 628.671875 125.164062 Z M 628.671875 125.164062 " fill-opacity="1" fill-rule="nonzero"/><path fill="#000080" d="M 599.335938 110.152344 C 599.335938 110.152344 596.035156 117.019531 590.121094 118.253906 C 584.207031 119.492188 582.160156 116.675781 581.78125 116.175781 C 581.402344 115.679688 582 118.078125 585.304688 119.257812 C 588.609375 120.441406 594.359375 120.304688 599.460938 115.074219 C 604.5625 109.84375 604 107.949219 604 107.949219 Z M 599.335938 110.152344 " fill-opacity="1" fill-rule="nonzero"/><path fill="#fff0dd" d="M 594.28125 140.246094 C 594.375 140.828125 593.417969 141.472656 592.140625 141.683594 C 590.863281 141.894531 589.75 141.597656 589.652344 141.015625 C 589.554688 140.433594 590.515625 139.792969 591.792969 139.578125 C 593.070312 139.367188 594.183594 139.667969 594.28125 140.246094 Z M 594.28125 140.246094 " fill-opacity="1" fill-rule="nonzero"/><path fill="#ff9aa6" d="M 595.050781 135.871094 C 595.050781 135.871094 591.449219 139.980469 591 141.546875 C 590.554688 143.113281 593.566406 143.042969 594.75 142.847656 C 595.933594 142.652344 596.976562 139.21875 596.988281 137.410156 C 597.003906 135.601562 595.929688 134.765625 595.050781 135.871094 Z M 595.050781 135.871094 " fill-opacity="1" fill-rule="nonzero"/><path fill="#fff0dd" d="M 615.039062 136.800781 C 615.136719 137.378906 613.457031 138.144531 611.289062 138.503906 C 609.117188 138.863281 607.28125 138.683594 607.183594 138.105469 C 607.089844 137.523438 608.769531 136.757812 610.9375 136.398438 C 613.105469 136.039062 614.941406 136.21875 615.039062 136.800781 Z M 615.039062 136.800781 " fill-opacity="1" fill-rule="nonzero"/><path fill="#b9deff" d="M 619.761719 190.175781 C 619.761719 190.175781 617.382812 190.425781 614.609375 195.507812 C 611.835938 200.589844 610.519531 203.328125 610.839844 204.179688 C 611.160156 205.035156 618.632812 203.339844 620.519531 201.847656 C 622.402344 200.351562 619.761719 190.175781 619.761719 190.175781 Z M 619.761719 190.175781 " fill-opacity="1" fill-rule="nonzero"/><path fill="#ffffff" d="M 635.5625 176.640625 L 634.355469 165.179688 C 634.355469 165.179688 642.097656 171.011719 643.402344 174.230469 C 644.710938 177.445312 645.175781 184.328125 641.453125 189.15625 C 637.734375 193.980469 627.71875 208.914062 625.105469 210.824219 C 622.492188 212.734375 617.480469 194.53125 617.480469 194.53125 C 617.480469 194.53125 616.707031 192.101562 617.546875 191.417969 C 621.859375 187.894531 635.558594 176.640625 635.558594 176.640625 Z M 635.5625 176.640625 " fill-opacity="1" fill-rule="nonzero"/><path fill="#b9deff" d="M 606.71875 193.160156 C 606.71875 193.160156 612.09375 203.671875 611.171875 204.242188 C 610.246094 204.808594 603.730469 203.828125 601.882812 200.699219 C 600.035156 197.570312 606.71875 193.160156 606.71875 193.160156 Z M 606.71875 193.160156 " fill-opacity="1" fill-rule="nonzero"/><path fill="#ffffff" d="M 598.375 185.019531 C 598.375 185.019531 599.484375 181.476562 600.390625 177.875 C 601.332031 174.125 602.015625 171.125 602.015625 171.125 C 602.015625 171.125 595.769531 174.324219 593.066406 176.8125 C 590.367188 179.300781 590.648438 185.769531 590.648438 188.257812 C 590.648438 190.746094 593.351562 204.394531 596.90625 209.585938 C 600.460938 214.773438 600.957031 211.363281 602.308594 208.164062 C 603.660156 204.964844 606.859375 194.867188 606.859375 193.164062 C 606.859375 191.457031 598.375 185.019531 598.375 185.019531 Z M 598.375 185.019531 " fill-opacity="1" fill-rule="nonzero"/><path fill="#b9deff" d="M 598.375 185.019531 C 596.242188 182.777344 594.351562 180.597656 596.65625 177.273438 C 598.847656 174.117188 602.015625 171.125 602.015625 171.125 C 602.171875 171.28125 599.160156 183.371094 598.375 185.019531 Z M 598.375 185.019531 " fill-opacity="1" fill-rule="nonzero"/><path fill="#b9deff" d="M 635.5625 176.640625 L 634.355469 165.179688 C 634.355469 165.179688 638.175781 170.710938 638.226562 172.769531 C 638.277344 174.832031 635.5625 176.640625 635.5625 176.640625 Z M 635.5625 176.640625 " fill-opacity="1" fill-rule="nonzero"/><path fill="#ffffff" d="M 556.320312 325.234375 C 556.371094 325.773438 556.433594 326.347656 556.5 326.925781 C 596.8125 332.058594 636.417969 331.253906 675.597656 326.925781 C 675.347656 326.351562 675.097656 325.78125 674.832031 325.234375 C 634.609375 329.1875 595.027344 329.621094 556.320312 325.234375 Z M 599.398438 386.660156 C 599.21875 386.660156 599.042969 386.714844 598.898438 386.824219 C 598.519531 387.097656 598.4375 387.625 598.714844 388.003906 C 605.582031 397.445312 617.835938 411.746094 617.835938 411.746094 C 618.140625 412.101562 618.671875 412.140625 619.023438 411.839844 C 619.378906 411.535156 619.417969 411.003906 619.117188 410.648438 C 619.117188 410.648438 606.859375 396.335938 600.078125 387.007812 C 599.917969 386.792969 599.667969 386.664062 599.398438 386.660156 Z M 652.757812 659.394531 C 652.355469 659.398438 652.03125 659.71875 652.03125 660.121094 C 652.03125 660.523438 652.355469 660.851562 652.757812 660.851562 L 675.789062 660.851562 C 675.703125 660.382812 675.617188 659.894531 675.535156 659.394531 Z M 516.582031 661.996094 C 516.183594 661.996094 515.859375 662.320312 515.855469 662.722656 C 515.855469 663.125 516.179688 663.449219 516.582031 663.453125 L 545.886719 663.453125 C 545.945312 663.453125 546.003906 663.445312 546.0625 663.429688 C 546.003906 663.191406 545.953125 662.972656 545.890625 662.722656 C 545.890625 662.574219 545.925781 662.3125 545.976562 662 C 545.945312 661.996094 545.914062 661.996094 545.886719 661.996094 Z M 516.582031 661.996094 " fill-opacity="0.4" fill-rule="nonzero"/><path fill="#006eff" d="M 587.882812 124.0625 C 586.300781 124.324219 585.050781 125.46875 584.308594 127.011719 C 583.570312 128.554688 583.300781 130.515625 583.640625 132.5625 C 583.980469 134.609375 584.867188 136.378906 586.070312 137.601562 C 587.269531 138.820312 588.824219 139.5 590.402344 139.238281 C 591.984375 138.976562 593.230469 137.828125 593.972656 136.285156 C 594.714844 134.742188 594.984375 132.78125 594.644531 130.734375 C 594.628906 130.652344 594.613281 130.570312 594.601562 130.484375 C 594.609375 130.472656 594.617188 130.460938 594.625 130.449219 C 594.625 130.449219 594.773438 130.210938 595.015625 130.070312 C 595.253906 129.933594 595.503906 129.816406 596.101562 130.246094 C 596.125 130.261719 596.152344 130.277344 596.179688 130.292969 C 596.191406 130.355469 596.203125 130.414062 596.210938 130.476562 C 596.894531 134.605469 600.667969 137.457031 604.640625 136.796875 C 608.570312 136.144531 611.191406 132.3125 610.59375 128.238281 L 629.125 122.394531 C 629.421875 122.300781 629.585938 121.984375 629.492188 121.6875 C 629.40625 121.414062 629.121094 121.25 628.839844 121.308594 C 628.820312 121.3125 628.804688 121.316406 628.789062 121.320312 L 610.351562 127.132812 C 609.285156 123.53125 605.804688 121.160156 602.148438 121.765625 C 598.652344 122.347656 596.191406 125.441406 596.109375 128.984375 C 595.460938 128.757812 594.855469 128.859375 594.453125 129.09375 C 594.390625 129.128906 594.347656 129.171875 594.292969 129.210938 C 593.84375 127.8125 593.125 126.601562 592.234375 125.695312 C 591.03125 124.476562 589.480469 123.796875 587.898438 124.058594 Z M 588.066406 125.171875 C 589.21875 124.980469 590.398438 125.460938 591.410156 126.492188 C 592.421875 127.519531 593.226562 129.082031 593.53125 130.917969 C 593.839844 132.757812 593.582031 134.496094 592.957031 135.796875 C 592.332031 137.097656 591.371094 137.933594 590.21875 138.125 C 589.066406 138.316406 587.878906 137.835938 586.867188 136.808594 C 585.855469 135.78125 585.054688 134.214844 584.75 132.378906 C 584.445312 130.539062 584.695312 128.800781 585.320312 127.5 C 585.949219 126.203125 586.914062 125.363281 588.066406 125.171875 Z M 602.3125 122.878906 C 605.660156 122.324219 608.859375 124.714844 609.449219 128.277344 C 610.042969 131.832031 607.789062 135.136719 604.441406 135.691406 C 601.097656 136.25 597.898438 133.851562 597.304688 130.292969 C 596.714844 126.734375 598.96875 123.4375 602.3125 122.878906 Z M 602.3125 122.878906 " fill-opacity="1" fill-rule="nonzero"/><path fill="#ffd2c0" d="M 633.097656 119.042969 C 635.851562 119.480469 637.574219 123.070312 636.941406 127.066406 C 636.3125 131.058594 633.570312 133.945312 630.816406 133.511719 C 628.0625 133.074219 626.339844 129.484375 626.972656 125.488281 C 627.601562 121.496094 630.34375 118.609375 633.097656 119.042969 Z M 633.097656 119.042969 " fill-opacity="1" fill-rule="nonzero"/><path fill="#ff9aa6" d="M 630.023438 129.609375 C 630.023438 129.609375 628.808594 125.648438 630.785156 122.816406 C 632.765625 119.980469 634.867188 122.335938 634.730469 123.023438 C 634.59375 123.714844 634.644531 122.824219 633.90625 122.835938 C 633.171875 122.851562 632.140625 123.597656 632.035156 124.375 C 631.929688 125.148438 633.46875 123.773438 633.917969 125.5 C 634.363281 127.230469 632.84375 128.796875 631.714844 128.066406 C 630.582031 127.335938 630.953125 129.886719 632.019531 129.582031 C 633.085938 129.277344 632.945312 130.492188 631.710938 130.644531 C 630.472656 130.792969 630.023438 129.609375 630.023438 129.609375 Z M 630.023438 129.609375 " fill-opacity="1" fill-rule="nonzero"/><path fill="#ffd2c0" d="M 720.945312 261.652344 C 701.859375 271.679688 696.871094 259.0625 674.800781 276.390625 L 677.417969 281.859375 L 691.847656 309.351562 C 691.847656 309.351562 699.972656 322.832031 712.640625 321.332031 C 725.304688 319.835938 733.4375 303.59375 729.664062 291.351562 C 725.894531 279.113281 722.535156 266.40625 722.535156 266.40625 Z M 720.945312 261.652344 " fill-opacity="1" fill-rule="nonzero"/><path fill="#ff9aa6" d="M 504.367188 678.285156 L 538.917969 683.515625 L 540.953125 678.285156 Z M 504.367188 678.285156 " fill-opacity="1" fill-rule="nonzero"/><path fill="#ffffff" d="M 502.019531 688.632812 L 500.257812 696.382812 L 533.78125 696.382812 L 536.851562 688.632812 Z M 502.019531 688.632812 " fill-opacity="1" fill-rule="nonzero"/><path fill="#ffd2c0" d="M 473.523438 220.949219 C 473.980469 219.003906 475.285156 216.636719 478.570312 214.628906 C 485.585938 210.34375 492.058594 216.769531 494.902344 221.378906 C 497.746094 225.992188 531.835938 296.171875 531.835938 296.171875 C 531.835938 296.171875 533.191406 300.015625 533.046875 304.554688 C 533.753906 311.894531 528.578125 320.304688 519.71875 324.429688 C 498.183594 330.910156 496.15625 305.324219 493.472656 290.59375 L 473.578125 224.816406 C 473.578125 224.820312 473.007812 223.152344 473.523438 220.949219 Z M 473.523438 220.949219 " fill-opacity="1" fill-rule="nonzero"/><path fill="#ffd2c0" d="M 693.421875 280.457031 L 628.414062 251 C 628.414062 251 622.609375 248.113281 617.242188 254.753906 C 611.871094 261.390625 617.605469 268.933594 621.964844 272.488281 C 626.324219 276.042969 693.929688 320.71875 693.929688 320.71875 C 698.648438 323.945312 720.828125 327.59375 727.046875 310.605469 C 730.886719 300.117188 693.421875 280.457031 693.421875 280.457031 Z M 693.421875 280.457031 " fill-opacity="1" fill-rule="nonzero"/><path fill="#004ad9" d="M 457.246094 167.964844 L 499.542969 160.128906 C 503.699219 159.355469 508.132812 162.039062 509.476562 166.09375 L 529.613281 226.882812 C 530.957031 230.9375 528.6875 234.800781 524.527344 235.550781 L 482.234375 243.386719 C 478.078125 244.15625 473.644531 241.476562 472.300781 237.421875 L 452.164062 176.632812 C 450.820312 172.578125 453.09375 168.734375 457.246094 167.964844 Z M 457.246094 167.964844 " fill-opacity="1" fill-rule="nonzero"/><path fill="#ffd2c0" d="M 645.058594 266.003906 C 635.855469 255.394531 623.300781 239.433594 619.109375 235 C 614.914062 230.566406 608.519531 229.339844 599.695312 226.777344 C 590.875 224.214844 584.992188 223.503906 583.058594 223.105469 C 581.125 222.699219 581.953125 226.125 588.5625 228.714844 C 595.175781 231.300781 604.429688 236.195312 604.429688 236.195312 C 604.429688 236.195312 599.144531 235.320312 594.527344 235.859375 C 589.910156 236.394531 580.730469 238.523438 580.882812 240.53125 C 581.050781 242.714844 589.832031 241.585938 595.507812 241.859375 C 601.183594 242.132812 605.28125 243.332031 605.28125 243.332031 C 605.28125 243.332031 592.984375 244.246094 589.53125 245.050781 C 586.082031 245.859375 583.175781 246.710938 583.320312 247.996094 C 583.421875 248.917969 590.789062 249.546875 593.441406 249.359375 C 596.0625 249.171875 603.1875 250.875 603.1875 250.875 C 603.1875 250.875 592.53125 251.511719 589.648438 252.566406 C 586.769531 253.621094 587.148438 254.539062 591.296875 255.28125 C 595.449219 256.027344 603.417969 256.144531 609.015625 261.609375 C 614.609375 267.074219 623.636719 274.769531 631.09375 277.175781 C 638.554688 279.582031 651.964844 276.589844 645.058594 266.003906 Z M 645.058594 266.003906 " fill-opacity="1" fill-rule="nonzero"/><path fill="#ff9aa6" d="M 612.425781 237.285156 C 611.992188 237.023438 611.453125 236.894531 610.753906 236.722656 C 609.953125 236.527344 608.996094 236.34375 608.070312 236.179688 C 606.222656 235.855469 604.503906 235.628906 604.503906 235.628906 C 604.191406 235.585938 603.90625 235.804688 603.863281 236.117188 C 603.820312 236.433594 604.039062 236.71875 604.351562 236.761719 C 604.355469 236.761719 604.355469 236.761719 604.359375 236.761719 C 604.359375 236.761719 606.058594 236.992188 607.878906 237.3125 C 608.789062 237.472656 609.722656 237.648438 610.480469 237.835938 C 611.238281 238.023438 611.867188 238.289062 611.898438 238.316406 C 612.269531 238.601562 612.839844 239.3125 613.269531 239.929688 C 613.695312 240.546875 614.003906 241.074219 614.003906 241.074219 C 614.164062 241.347656 614.511719 241.4375 614.785156 241.277344 C 614.789062 241.277344 614.789062 241.277344 614.789062 241.277344 C 615.058594 241.113281 615.148438 240.765625 614.988281 240.496094 C 614.988281 240.496094 614.660156 239.9375 614.207031 239.28125 C 613.753906 238.625 613.203125 237.875 612.601562 237.410156 C 612.542969 237.367188 612.488281 237.324219 612.425781 237.289062 Z M 611.039062 243.691406 C 610.105469 243.132812 608.824219 242.964844 607.683594 242.855469 C 606.382812 242.730469 605.265625 242.761719 605.265625 242.761719 C 604.949219 242.769531 604.699219 243.03125 604.707031 243.347656 C 604.714844 243.664062 604.976562 243.914062 605.292969 243.90625 C 605.296875 243.90625 605.296875 243.90625 605.296875 243.90625 C 605.296875 243.90625 606.351562 243.878906 607.578125 243.996094 C 608.804688 244.113281 610.199219 244.441406 610.6875 244.84375 C 610.933594 245.042969 611.292969 245.007812 611.496094 244.765625 C 611.496094 244.765625 611.496094 244.765625 611.496094 244.761719 C 611.695312 244.519531 611.660156 244.160156 611.417969 243.957031 C 611.417969 243.957031 611.414062 243.957031 611.414062 243.957031 C 611.296875 243.859375 611.171875 243.769531 611.039062 243.691406 Z M 607.847656 251.703125 C 607.09375 251.253906 606.164062 250.96875 605.328125 250.746094 C 604.21875 250.449219 603.269531 250.308594 603.269531 250.308594 C 602.957031 250.261719 602.667969 250.476562 602.621094 250.789062 C 602.574219 251.097656 602.789062 251.390625 603.101562 251.4375 C 603.101562 251.4375 603.988281 251.574219 605.03125 251.855469 C 606.078125 252.136719 607.273438 252.597656 607.75 253.046875 C 607.980469 253.261719 608.34375 253.25 608.558594 253.019531 C 608.777344 252.789062 608.765625 252.425781 608.535156 252.210938 C 608.535156 252.210938 608.535156 252.210938 608.53125 252.210938 C 608.332031 252.019531 608.097656 251.851562 607.847656 251.703125 Z M 607.847656 251.703125 " fill-opacity="1" fill-rule="nonzero"/><path fill="#ffffff" d="M 462.777344 174.824219 C 463.019531 176.164062 462.128906 177.445312 460.789062 177.6875 C 459.449219 177.929688 458.167969 177.035156 457.925781 175.699219 C 457.6875 174.359375 458.578125 173.078125 459.914062 172.835938 C 461.257812 172.59375 462.539062 173.484375 462.777344 174.824219 Z M 462.777344 174.824219 " fill-opacity="1" fill-rule="nonzero"/><path fill="#ffd2c0" d="M 459.410156 195.246094 C 459.410156 195.246094 459.667969 193.460938 459.03125 191.277344 C 458.390625 189.09375 455.589844 187.65625 454.433594 190.320312 C 453.28125 192.984375 455.289062 198.757812 457.445312 198.253906 C 459.597656 197.75 459.410156 195.246094 459.410156 195.246094 Z M 459.410156 195.246094 " fill-opacity="0.995" fill-rule="nonzero"/><path fill="#ffd2c0" d="M 458.320312 199.339844 C 456.28125 199.300781 454.828125 202.757812 456.953125 205.394531 C 459.078125 208.035156 466.347656 208.191406 469.601562 207.359375 C 472.855469 206.527344 472.625 202.414062 468.585938 200.996094 C 464.542969 199.578125 462.375 198.988281 458.320312 199.339844 Z M 458.320312 199.339844 " fill-opacity="1" fill-rule="nonzero"/><path fill="#ffd2c0" d="M 457.246094 207.839844 C 455.382812 208.703125 454.933594 212.734375 457.523438 214.375 C 460.113281 216.019531 466.75 212.949219 469.496094 210.691406 C 472.242188 208.433594 470.996094 204.507812 466.976562 204.910156 C 462.953125 205.3125 460.839844 205.695312 457.246094 207.839844 Z M 457.246094 207.839844 " fill-opacity="1" fill-rule="nonzero"/><path fill="#ffd2c0" d="M 461.238281 214.496094 C 459.816406 215.15625 459.472656 218.230469 461.449219 219.484375 C 463.425781 220.738281 466.972656 218.886719 469.066406 217.164062 C 471.160156 215.441406 470.210938 212.445312 467.144531 212.753906 C 464.074219 213.058594 463.980469 212.859375 461.238281 214.496094 Z M 461.238281 214.496094 " fill-opacity="1" fill-rule="nonzero"/><path fill="#ff9aa6" d="M 681.113281 274.480469 C 680.90625 274.492188 680.726562 274.621094 680.644531 274.808594 C 680.523438 275.085938 680.648438 275.40625 680.925781 275.527344 C 680.925781 275.527344 680.925781 275.527344 680.929688 275.527344 L 695.820312 282.0625 C 696.097656 282.183594 696.417969 282.058594 696.539062 281.78125 C 696.539062 281.78125 696.539062 281.78125 696.539062 281.777344 C 696.65625 281.503906 696.53125 281.1875 696.261719 281.066406 L 691.460938 278.957031 C 692.679688 278.417969 695.582031 277.519531 698.53125 279.519531 C 698.78125 279.691406 699.121094 279.625 699.289062 279.375 C 699.457031 279.128906 699.394531 278.789062 699.144531 278.617188 C 698.042969 277.871094 696.941406 277.484375 695.90625 277.316406 C 692.792969 276.816406 690.285156 278.328125 690.285156 278.328125 C 690.25 278.347656 690.21875 278.375 690.191406 278.402344 L 681.363281 274.53125 C 681.300781 274.5 681.234375 274.484375 681.164062 274.480469 C 681.148438 274.480469 681.128906 274.480469 681.113281 274.480469 Z M 681.113281 274.480469 " fill-opacity="1" fill-rule="nonzero"/><path fill="#ff9aa6" d="M 517.558594 266.207031 C 517.546875 266.207031 517.535156 266.207031 517.523438 266.207031 C 517.441406 266.21875 517.363281 266.242188 517.296875 266.285156 C 517.035156 266.4375 516.945312 266.769531 517.097656 267.03125 C 517.40625 267.558594 521.601562 274.839844 521.601562 274.839844 C 521.753906 275.101562 522.085938 275.191406 522.347656 275.039062 C 522.605469 274.886719 522.695312 274.558594 522.546875 274.296875 C 522.546875 274.296875 521.894531 273.164062 521.597656 272.648438 C 522.578125 272.574219 523.863281 272.503906 525.222656 273.613281 C 525.457031 273.804688 525.800781 273.769531 525.992188 273.535156 C 526.183594 273.300781 526.148438 272.957031 525.914062 272.765625 C 524.957031 271.980469 523.953125 271.675781 523.089844 271.570312 C 522.226562 271.46875 521.5 271.566406 521.085938 271.585938 C 521.054688 271.589844 521.023438 271.59375 520.992188 271.601562 C 519.734375 269.410156 518.261719 266.855469 518.042969 266.476562 C 517.941406 266.304688 517.757812 266.199219 517.558594 266.207031 Z M 517.558594 266.207031 " fill-opacity="1" fill-rule="nonzero"/><path fill="#ffb900" d="M 235.539062 432.199219 C 235.539062 463.5625 216.394531 491.746094 187.242188 503.300781 C 158.085938 514.855469 124.835938 507.441406 103.351562 484.597656 C 81.863281 461.753906 76.503906 428.109375 89.820312 399.71875 L 159.058594 432.199219 Z M 235.539062 432.199219 " fill-opacity="1" fill-rule="nonzero"/><path fill="#d0eaff" d="M 170.457031 347.628906 C 212.695312 347.628906 246.9375 381.871094 246.9375 424.113281 L 170.457031 424.113281 Z M 170.457031 347.628906 " fill-opacity="1" fill-rule="nonzero"/><path fill="#ffb900" d="M 104.226562 378.886719 C 118.625 364.074219 138.402344 355.71875 159.058594 355.71875 L 159.058594 432.199219 Z M 104.226562 378.886719 " fill-opacity="1" fill-rule="nonzero"/><path fill="#006eff" d="M 415.890625 321.832031 C 415.890625 321.832031 456.132812 381.90625 471.492188 394.15625 C 486.851562 406.40625 498.515625 392.796875 498.515625 392.796875 C 498.515625 392.796875 512.125 381.128906 499.875 365.769531 C 487.628906 350.410156 427.554688 310.167969 427.554688 310.167969 L 422.890625 317.167969 Z M 415.890625 321.832031 " fill-opacity="1" fill-rule="nonzero"/><path fill="#006eff" d="M 450.140625 289.921875 C 450.140625 320.367188 425.460938 345.050781 395.015625 345.050781 C 364.570312 345.050781 339.890625 320.367188 339.890625 289.921875 C 339.890625 259.476562 364.570312 234.796875 395.015625 234.796875 C 425.460938 234.796875 450.140625 259.476562 450.140625 289.921875 Z M 450.140625 289.921875 " fill-opacity="1" fill-rule="nonzero"/><path fill="#d0eaff" d="M 438.59375 289.921875 C 438.59375 313.992188 419.085938 333.503906 395.015625 333.503906 C 370.949219 333.503906 351.441406 313.992188 351.441406 289.921875 C 351.441406 265.855469 370.949219 246.34375 395.015625 246.34375 C 419.085938 246.34375 438.59375 265.855469 438.59375 289.921875 Z M 438.59375 289.921875 " fill-opacity="1" fill-rule="nonzero"/><path fill="#ffffff" d="M 415.457031 266.484375 C 415.457031 277.605469 406.441406 286.621094 395.316406 286.621094 C 384.195312 286.621094 375.179688 277.605469 375.179688 266.484375 C 375.179688 255.359375 384.195312 246.34375 395.316406 246.34375 C 406.441406 246.34375 415.457031 255.359375 415.457031 266.484375 Z M 415.457031 266.484375 " fill-opacity="1" fill-rule="nonzero"/><path fill="#89cdff" d="M 212.796875 581.300781 C 220.265625 581.300781 226.277344 587.3125 226.277344 594.78125 L 226.277344 676.671875 C 226.277344 678.429688 225.941406 680.101562 225.335938 681.640625 L 234.183594 681.640625 L 243.242188 726.074219 L 232.085938 726.074219 L 216.113281 689.742188 C 215.054688 690.007812 213.941406 690.152344 212.796875 690.152344 L 186.308594 690.152344 L 170.511719 726.074219 L 159.359375 726.074219 L 166.683594 690.152344 L 160.289062 690.152344 C 152.820312 690.152344 146.808594 684.140625 146.808594 676.671875 L 146.808594 594.78125 C 146.808594 587.3125 152.820312 581.300781 160.289062 581.300781 Z M 212.796875 581.300781 " fill-opacity="1" fill-rule="nonzero"/><path fill="#d0eaff" d="M 395.261719 581.300781 C 402.730469 581.300781 408.742188 587.3125 408.742188 594.78125 L 408.742188 676.671875 C 408.742188 684.140625 402.730469 690.152344 395.261719 690.152344 L 381.289062 690.152344 L 388.613281 726.074219 L 377.460938 726.074219 L 361.664062 690.152344 L 219.902344 690.152344 L 204.109375 726.074219 L 192.957031 726.074219 L 200.277344 690.152344 L 194.898438 690.152344 C 187.429688 690.152344 181.417969 684.140625 181.417969 676.671875 L 181.417969 594.78125 C 181.417969 587.3125 187.429688 581.300781 194.898438 581.300781 Z M 395.261719 581.300781 " fill-opacity="1" fill-rule="nonzero"/><path fill="#ffffff" d="M 385.941406 649.128906 L 207.964844 649.128906 C 203.238281 649.128906 199.433594 652.933594 199.433594 657.660156 L 199.433594 663.660156 C 199.433594 668.386719 203.238281 672.191406 207.964844 672.191406 L 385.941406 672.191406 C 390.664062 672.191406 394.46875 668.386719 394.46875 663.660156 L 394.46875 657.660156 C 394.46875 652.933594 390.664062 649.128906 385.941406 649.128906 Z M 385.941406 649.128906 " fill-opacity="1" fill-rule="nonzero"/><path fill="#89cdff" d="M 280.894531 657.34375 C 280.894531 658.726562 288.082031 659.847656 296.953125 659.847656 C 305.820312 659.847656 313.011719 658.726562 313.011719 657.34375 C 313.011719 655.960938 305.820312 655.964844 296.953125 655.964844 C 288.082031 655.964844 280.894531 655.957031 280.894531 657.34375 Z M 280.894531 657.34375 " fill-opacity="1" fill-rule="nonzero"/><path fill="#ffffff" d="M 385.941406 596.144531 L 207.964844 596.144531 C 203.238281 596.144531 199.433594 599.945312 199.433594 604.671875 L 199.433594 626.886719 C 199.433594 631.609375 203.238281 635.414062 207.964844 635.414062 L 385.941406 635.414062 C 390.664062 635.414062 394.46875 631.609375 394.46875 626.886719 L 394.46875 604.671875 C 394.46875 599.945312 390.664062 596.144531 385.941406 596.144531 Z M 385.941406 596.144531 " fill-opacity="1" fill-rule="nonzero"/><path fill="#89cdff" d="M 280.894531 608.769531 C 280.894531 610.152344 288.082031 611.273438 296.953125 611.273438 C 305.820312 611.273438 313.011719 610.152344 313.011719 608.769531 C 313.011719 607.386719 305.820312 607.390625 296.953125 607.390625 C 288.082031 607.390625 280.894531 607.382812 280.894531 608.769531 Z M 280.894531 608.769531 " fill-opacity="1" fill-rule="nonzero"/><path fill="#89cdff" d="M 325.15625 690.152344 L 317.832031 726.074219 L 328.988281 726.074219 L 344.78125 690.152344 Z M 325.15625 690.152344 " fill-opacity="1" fill-rule="nonzero"/><path fill="#d0eaff" d="M 297.894531 396.800781 L 459.675781 396.800781 L 459.675781 566.675781 L 297.894531 566.675781 Z M 297.894531 396.800781 " fill-opacity="1" fill-rule="nonzero"/><path fill="#ffffff" d="M 308.1875 407.609375 L 449.378906 407.609375 L 449.378906 555.863281 L 308.1875 555.863281 Z M 308.1875 407.609375 " fill-opacity="1" fill-rule="nonzero"/><path fill="#d0eaff" d="M 420.667969 421.519531 L 434.707031 421.519531 L 434.707031 541.953125 L 420.667969 541.953125 Z M 420.667969 421.519531 " fill-opacity="1" fill-rule="nonzero"/><path fill="#d0eaff" d="M 396.382812 421.519531 L 410.421875 421.519531 L 410.421875 541.953125 L 396.382812 541.953125 Z M 396.382812 421.519531 " fill-opacity="1" fill-rule="nonzero"/><path fill="#d0eaff" d="M 372.101562 421.519531 L 386.136719 421.519531 L 386.136719 541.953125 L 372.101562 541.953125 Z M 372.101562 421.519531 " fill-opacity="1" fill-rule="nonzero"/><path fill="#d0eaff" d="M 347.816406 421.519531 L 361.855469 421.519531 L 361.855469 541.953125 L 347.816406 541.953125 Z M 347.816406 421.519531 " fill-opacity="1" fill-rule="nonzero"/><path fill="#d0eaff" d="M 323.53125 421.519531 L 337.570312 421.519531 L 337.570312 541.953125 L 323.53125 541.953125 Z M 323.53125 421.519531 " fill-opacity="1" fill-rule="nonzero"/><path fill="#006eff" d="M 420.667969 456.214844 L 434.707031 456.214844 L 434.707031 541.953125 L 420.667969 541.953125 Z M 420.667969 456.214844 " fill-opacity="1" fill-rule="nonzero"/><path fill="#ffb900" d="M 396.382812 506.652344 L 410.421875 506.652344 L 410.421875 541.953125 L 396.382812 541.953125 Z M 396.382812 506.652344 " fill-opacity="1" fill-rule="nonzero"/><path fill="#006eff" d="M 372.101562 466.09375 L 386.136719 466.09375 L 386.136719 541.953125 L 372.101562 541.953125 Z M 372.101562 466.09375 " fill-opacity="1" fill-rule="nonzero"/><path fill="#ffb900" d="M 347.816406 444.773438 L 361.855469 444.773438 L 361.855469 541.953125 L 347.816406 541.953125 Z M 347.816406 444.773438 " fill-opacity="1" fill-rule="nonzero"/><path fill="#006eff" d="M 323.53125 519.609375 L 337.570312 519.609375 L 337.570312 541.953125 L 323.53125 541.953125 Z M 323.53125 519.609375 " fill-opacity="1" fill-rule="nonzero"/><path fill="#006eff" d="M 267.140625 514.339844 C 267.140625 514.339844 240.171875 554.597656 229.882812 562.804688 C 219.589844 571.011719 211.773438 561.894531 211.773438 561.894531 C 211.773438 561.894531 202.652344 554.078125 210.859375 543.785156 C 219.066406 533.492188 259.324219 506.523438 259.324219 506.523438 L 262.449219 511.214844 Z M 267.140625 514.339844 " fill-opacity="1" fill-rule="nonzero"/><path fill="#006eff" d="M 244.1875 492.957031 C 244.1875 513.359375 260.726562 529.898438 281.128906 529.898438 C 301.53125 529.898438 318.070312 513.359375 318.070312 492.957031 C 318.070312 472.554688 301.53125 456.015625 281.128906 456.015625 C 260.726562 456.015625 244.1875 472.554688 244.1875 492.957031 Z M 244.1875 492.957031 " fill-opacity="1" fill-rule="nonzero"/><path fill="#d0eaff" d="M 251.925781 492.957031 C 251.925781 509.085938 265 522.160156 281.128906 522.160156 C 297.257812 522.160156 310.332031 509.085938 310.332031 492.957031 C 310.332031 476.828125 297.257812 463.753906 281.128906 463.753906 C 265 463.753906 251.925781 476.828125 251.925781 492.957031 Z M 251.925781 492.957031 " fill-opacity="1" fill-rule="nonzero"/><path fill="#ffffff" d="M 267.433594 477.25 C 267.433594 484.703125 273.472656 490.746094 280.925781 490.746094 C 288.378906 490.746094 294.421875 484.703125 294.421875 477.25 C 294.421875 469.796875 288.378906 463.753906 280.925781 463.753906 C 273.472656 463.753906 267.433594 469.796875 267.433594 477.25 Z M 267.433594 477.25 " fill-opacity="1" fill-rule="nonzero"/></svg>