<svg id="visual" viewBox="0 0 900 600" width="900" height="600" xmlns="http://www.w3.org/2000/svg" xmlns:xlink="http://www.w3.org/1999/xlink" version="1.1"><path d="M0 539L53 530L106 517L159 536L212 536L265 548L318 520L371 547L424 526L476 526L529 531L582 517L635 532L688 526L741 541L794 545L847 533L900 542L900 601L847 601L794 601L741 601L688 601L635 601L582 601L529 601L476 601L424 601L371 601L318 601L265 601L212 601L159 601L106 601L53 601L0 601Z" fill="#fed84a"></path><path d="M0 543L53 539L106 546L159 556L212 542L265 561L318 545L371 559L424 552L476 539L529 541L582 559L635 563L688 550L741 553L794 543L847 558L900 555L900 601L847 601L794 601L741 601L688 601L635 601L582 601L529 601L476 601L424 601L371 601L318 601L265 601L212 601L159 601L106 601L53 601L0 601Z" fill="#a8c436"></path><path d="M0 566L53 566L106 563L159 576L212 561L265 571L318 576L371 569L424 563L476 560L529 576L582 572L635 568L688 567L741 575L794 578L847 573L900 571L900 601L847 601L794 601L741 601L688 601L635 601L582 601L529 601L476 601L424 601L371 601L318 601L265 601L212 601L159 601L106 601L53 601L0 601Z" fill="#49ab3c"></path></svg>