<svg id="visual" viewBox="0 0 900 600" width="900" height="600" xmlns="http://www.w3.org/2000/svg" xmlns:xlink="http://www.w3.org/1999/xlink" version="1.1"><path d="M0 77L129 81L257 54L386 66L514 75L643 68L771 67L900 62L900 0L771 0L643 0L514 0L386 0L257 0L129 0L0 0Z" fill="#fed84a"></path><path d="M0 66L129 47L257 66L386 51L514 66L643 67L771 62L900 54L900 0L771 0L643 0L514 0L386 0L257 0L129 0L0 0Z" fill="#d3cf3c"></path><path d="M0 53L129 36L257 39L386 36L514 44L643 46L771 50L900 36L900 0L771 0L643 0L514 0L386 0L257 0L129 0L0 0Z" fill="#a8c436"></path><path d="M0 39L129 26L257 28L386 36L514 31L643 26L771 31L900 36L900 0L771 0L643 0L514 0L386 0L257 0L129 0L0 0Z" fill="#7bb837"></path><path d="M0 14L129 16L257 24L386 13L514 21L643 25L771 20L900 22L900 0L771 0L643 0L514 0L386 0L257 0L129 0L0 0Z" fill="#49ab3c"></path></svg>