<?xml version="1.0" encoding="UTF-8"?>
<svg id="Layer_1" data-name="Layer 1" xmlns="http://www.w3.org/2000/svg" viewBox="0 0 1920 1080">
  <defs>
    <style>
      .cls-1 {
        fill: #fff;
        stroke-width: 0px;
      }

      .cls-2 {
        fill: none;
        stroke: #fff;
        stroke-miterlimit: 10;
        stroke-width: 40px;
      }
    </style>
  </defs>
  <path class="cls-1" d="M556.59,1021.4c1.51,4.95,5.07,8.46,13.15,8.46s11.49-3.32,11.49-7.29c0-4.19-2.27-6.81-12.93-8.6-11.31-1.91-14.24-5.42-14.24-10.79,0-6.65,6.28-10.58,14.64-10.58,12.59,0,15.42,6.62,15.86,10.42h-4.52c-.87-2.88-2.64-6.69-11.43-6.69-5.97,0-9.99,2.07-9.99,6.41,0,3.48,1.6,5.76,10.97,7.31,13.98,2.33,16.25,6.71,16.25,12.07,0,6.11-4.89,11.43-16.34,11.43-10.61,0-16.17-4.87-17.47-12.15h4.57Z"/>
  <path class="cls-1" d="M633.1,1012.96c0,11.17-7.59,20.6-20.45,20.6s-20.48-9.09-20.48-20.64c0-10.93,8.14-20.33,20.56-20.33s20.37,9.41,20.37,20.37ZM596.88,1012.76c0,8.74,5.55,16.93,15.87,16.93s15.66-7.48,15.66-16.62c0-8.48-5.63-16.61-16-16.61-9.6,0-15.53,7.53-15.53,16.31Z"/>
  <path class="cls-1" d="M642.09,993.42h4.38v35.41h24.19l-.73,3.9h-27.84v-39.31Z"/>
  <path class="cls-1" d="M684.6,1019.97l-5.54,12.76h-4.65l17.2-39.31h5.18l17.85,39.31h-4.84l-5.76-12.76h-19.45ZM702.49,1016.07c-5.13-11.37-7.52-16.67-8.42-19.24h-.05c-.79,2.47-3.65,9.42-7.88,19.24h16.35Z"/>
  <path class="cls-1" d="M725.86,1015.28v17.45h-4.41v-39.31h18.03c7.77,0,13.22,3.47,13.22,10.51,0,4.66-2.2,8.13-7.28,9.39,2.87.75,6.24,2.83,6.24,9.66v1.66c0,3.1,0,6.49.45,8.09h-4.52c-.57-1.71-.45-4.88-.45-7.94v-1.32c0-6.31-2.47-8.19-9.69-8.19h-11.6ZM725.86,1011.47h12.43c6.57,0,9.86-2.29,9.86-7.35,0-4.62-3.3-6.88-9.62-6.88h-12.67v14.24Z"/>
  <path class="cls-1" d="M778.82,993.42h17.93c9.95,0,13.93,5.17,13.93,11.34,0,7.63-5.18,11.8-13.65,11.8h-13.78v16.17h-4.43v-39.31ZM783.26,1012.65h12.98c5.78,0,9.9-1.65,9.9-7.81,0-4.82-3.29-7.52-9.9-7.52h-12.98v15.33Z"/>
  <path class="cls-1" d="M857.84,1012.96c0,11.17-7.59,20.6-20.45,20.6s-20.48-9.09-20.48-20.64c0-10.93,8.14-20.33,20.56-20.33s20.37,9.41,20.37,20.37ZM821.61,1012.76c0,8.74,5.55,16.93,15.87,16.93s15.65-7.48,15.65-16.62c0-8.48-5.62-16.61-15.99-16.61-9.6,0-15.53,7.53-15.53,16.31Z"/>
  <path class="cls-1" d="M874.9,1032.73l-12.49-39.31h4.69c3.08,9.85,9.57,30.17,10.41,34.88h.05c1-5.1,7.82-25.24,11.06-34.88h4.57c2.89,8.87,9.95,30.86,10.73,34.78h.06c1.29-5.53,8.03-25.48,11.19-34.78h4.48l-13.38,39.31h-4.88c-2.89-9.01-9.8-30.17-10.71-34.53h-.05c-.93,4.55-7.6,24.4-10.99,34.53h-4.74Z"/>
  <path class="cls-1" d="M955.05,1013.94h-24.04v14.93h26.47l-.65,3.86h-30.25v-39.31h29.72v3.86h-25.29v12.81h24.04v3.86Z"/>
  <path class="cls-1" d="M970.24,1015.28v17.45h-4.41v-39.31h18.03c7.77,0,13.22,3.47,13.22,10.51,0,4.66-2.2,8.13-7.28,9.39,2.87.75,6.24,2.83,6.24,9.66v1.66c0,3.1,0,6.49.45,8.09h-4.52c-.57-1.71-.45-4.88-.45-7.94v-1.32c0-6.31-2.47-8.19-9.69-8.19h-11.6ZM970.24,1011.47h12.43c6.57,0,9.86-2.29,9.86-7.35,0-4.62-3.3-6.88-9.62-6.88h-12.67v14.24Z"/>
  <path class="cls-1" d="M1058.72,1021.5c-2.36,6.71-7.14,12.06-18.03,12.06-12.78,0-19.96-8.98-19.96-20.39s7.98-20.58,20.19-20.58c11.15,0,16.3,5.95,17.95,12.37h-4.58c-1.95-4.65-5.41-8.51-13.43-8.51-9.5,0-15.42,6.97-15.42,16.57s5.96,16.69,15.47,16.69c7.92,0,11.02-3.46,13.33-8.21h4.48Z"/>
  <path class="cls-1" d="M1105.65,1012.96c0,11.17-7.59,20.6-20.45,20.6s-20.48-9.09-20.48-20.64c0-10.93,8.14-20.33,20.56-20.33s20.37,9.41,20.37,20.37ZM1069.42,1012.76c0,8.74,5.55,16.93,15.87,16.93s15.66-7.48,15.66-16.62c0-8.48-5.63-16.61-16-16.61-9.6,0-15.53,7.53-15.53,16.31Z"/>
  <path class="cls-1" d="M1119.05,1015.28v17.45h-4.41v-39.31h18.03c7.77,0,13.22,3.47,13.22,10.51,0,4.66-2.2,8.13-7.28,9.39,2.87.75,6.24,2.83,6.24,9.66v1.66c0,3.1,0,6.49.45,8.09h-4.52c-.57-1.71-.45-4.88-.45-7.94v-1.32c0-6.31-2.47-8.19-9.69-8.19h-11.6ZM1119.05,1011.47h12.43c6.57,0,9.86-2.29,9.86-7.35,0-4.62-3.3-6.88-9.62-6.88h-12.67v14.24Z"/>
  <path class="cls-1" d="M1156.02,993.42h17.93c9.95,0,13.93,5.17,13.93,11.34,0,7.63-5.18,11.8-13.65,11.8h-13.78v16.17h-4.43v-39.31ZM1160.45,1012.65h12.98c5.78,0,9.9-1.65,9.9-7.81,0-4.82-3.29-7.52-9.9-7.52h-12.98v15.33Z"/>
  <path class="cls-1" d="M1235.04,1012.96c0,11.17-7.59,20.6-20.45,20.6s-20.48-9.09-20.48-20.64c0-10.93,8.14-20.33,20.56-20.33s20.37,9.41,20.37,20.37ZM1198.81,1012.76c0,8.74,5.55,16.93,15.87,16.93s15.65-7.48,15.65-16.62c0-8.48-5.62-16.61-15.99-16.61-9.6,0-15.53,7.53-15.53,16.31Z"/>
  <path class="cls-1" d="M1248.44,1015.28v17.45h-4.41v-39.31h18.03c7.77,0,13.22,3.47,13.22,10.51,0,4.66-2.2,8.13-7.28,9.39,2.87.75,6.24,2.83,6.24,9.66v1.66c0,3.1,0,6.49.45,8.09h-4.52c-.57-1.71-.45-4.88-.45-7.94v-1.32c0-6.31-2.47-8.19-9.69-8.19h-11.6ZM1248.44,1011.47h12.43c6.57,0,9.86-2.29,9.86-7.35,0-4.62-3.3-6.88-9.62-6.88h-12.67v14.24Z"/>
  <path class="cls-1" d="M1290.73,1019.97l-5.54,12.76h-4.65l17.2-39.31h5.18l17.85,39.31h-4.84l-5.76-12.76h-19.45ZM1308.62,1016.07c-5.13-11.37-7.52-16.67-8.42-19.24h-.05c-.79,2.47-3.65,9.42-7.88,19.24h16.35Z"/>
  <path class="cls-1" d="M1331.89,997.31h-15.32v-3.9h35.09v3.9h-15.31v35.42h-4.47v-35.42Z"/>
  <path class="cls-1" d="M1362.73,993.42v39.31h-4.43v-39.31h4.43Z"/>
  <path class="cls-1" d="M1412.93,1012.96c0,11.17-7.59,20.6-20.45,20.6s-20.48-9.09-20.48-20.64c0-10.93,8.14-20.33,20.56-20.33s20.37,9.41,20.37,20.37ZM1376.7,1012.76c0,8.74,5.55,16.93,15.87,16.93s15.66-7.48,15.66-16.62c0-8.48-5.63-16.61-16-16.61-9.6,0-15.53,7.53-15.53,16.31Z"/>
  <path class="cls-1" d="M1421.92,1032.73v-39.31h5.33c8.22,11.03,23.19,30.01,25.35,33.88h.11c-.34-5.39-.29-11.28-.29-17.63v-16.24h4.2v39.31h-5.07c-6.45-8.41-22.66-30.08-25.61-34.68h-.11c.28,5.12.28,10.68.28,17.63v17.05h-4.19Z"/>
  <path class="cls-1" d="M634.12,946.96v-121.52h46.02c26.91,43.52,36,59.31,43.84,74.96h.65c-1.09-11.43-1.04-33.41-1.04-53.51v-21.45h35.56v121.52h-43.48c-9.47-16.88-39.35-68.62-46.56-83.41h-.59c1.16,13.89,1.22,30.01,1.22,53.86v29.56h-35.62Z"/>
  <path class="cls-1" d="M891.61,898.62h-64.94v20.29h72.6l-4.54,28.06h-106.99v-121.52h107.31v28.12h-68.38v16.94h64.94v28.12Z"/>
  <path class="cls-1" d="M1077.32,906c0-19.29.35-42.63,1.23-56.89h-.35c-5.87,23.51-13.62,54.89-25.75,97.85h-32.46c-9.56-39.96-17.43-73.52-23.4-98.09h-.29c.75,14.17,2.13,37.62,2.13,58.48v39.61h-35.28v-121.52h56.55c7.83,27.38,15.53,57.23,18.98,77.7h.23c4.64-21.5,12.43-49.9,20.57-77.7h56.36v121.52h-38.51v-40.96Z"/>
  <path class="cls-1" d="M1144.4,825.44h68.35c29.21,0,49.57,14.54,49.57,39.61s-19.18,40.68-49.41,40.68h-29.16v41.23h-39.35v-121.52ZM1183.75,879.02h22.85c10.67,0,16.84-4.33,16.84-13.64,0-7.77-4.69-13.35-16.84-13.35h-22.85v26.99Z"/>
  <path class="cls-1" d="M1319.11,902.26v44.7h-38.77v-121.52h73.48c30.2,0,45.97,14.77,45.97,34.89,0,15.65-9.08,25-20.97,29.11,6.56,2.81,17.73,8.64,17.73,29.25v6.59c0,6.91.01,15.76,1.68,21.69h-39.31c-2.01-5.11-2.48-12.58-2.48-25.15v-4.09c0-11.3-3.61-15.46-18.91-15.46h-18.43ZM1319.11,877.02h24.17c10.76,0,16.77-3.93,16.77-12.71,0-8.08-5.52-12.66-16.78-12.66h-24.16v25.37Z"/>
  <path class="cls-1" d="M1421.57,825.44h39.6v93.41h65.23l-4.63,28.12h-100.19v-121.52Z"/>
  <g>
    <path class="cls-1" d="M523.55,874.6c0-4.36,3.48-7.84,7.84-7.84h23.44c.36,0,.69.04,1.05.08l.12-.12,32.45-34.51c-11.56-7.92-26.59-12.65-44.74-12.65-48.62,0-73.23,31.44-73.23,66.52,0,19.84,7.15,37.47,20.77,49.55l32.82-34.88c-.36-.85-.53-1.74-.53-2.71v-23.44Z"/>
    <path class="cls-1" d="M594.68,837.05l-32.57,34.64c.36.89.57,1.86.57,2.91v23.44c0,4.32-3.52,7.84-7.84,7.84h-23.44c-.44,0-.89-.04-1.29-.12l-32.61,34.72c11.4,7.8,26.27,12.37,44.38,12.37,50.07,0,73.84-30.96,73.84-66.93,0-19.16-7.32-36.66-21.02-48.86Z"/>
  </g>
  <g>
    <path class="cls-2" d="M1428.58,486.62c.46,43.64-5.42,85.84-16.78,125.73l-388.16-391.43c-17.6-17.75-46.29-17.75-63.89,0l-394,397.32c-12.05-40.16-18.53-82.74-18.53-126.84,0-241.67,194.53-437.9,435.54-440.66,243.98-2.8,443.23,191.89,445.82,435.87Z"/>
    <path class="cls-2" d="M1385.34,702.43l-.87,3.72c-1.61,6.88-7.75,11.75-14.81,11.75h-52.42c-4.06,0-7.95-1.62-10.8-4.5l-24.94-25.15-279.6-281.96c-5.95-6-15.65-6-21.61,0l-279.6,281.96-24.94,25.15c-2.86,2.88-6.75,4.5-10.8,4.5h-52.42c-7.07,0-13.2-4.87-14.81-11.75l-.87-3.72c-1.19-5.1.32-10.46,4.01-14.18h0s32.04-32.31,32.04-32.31l347.39-350.32c5.95-6,15.65-6,21.61,0l342.48,345.36,36.95,37.27h0c3.69,3.72,5.21,9.08,4.01,14.18Z"/>
    <rect class="cls-1" x="942.13" y="620.19" width="91.56" height="103.01" rx="14.93" ry="14.93"/>
  </g>
</svg>