<?xml version="1.0" encoding="UTF-8"?>
<svg id="Layer_2" data-name="Layer 2" xmlns="http://www.w3.org/2000/svg" viewBox="0 0 1739.76 362.36">
  <defs>
    <style>
      .cls-1 {
        stroke-width: 19.52px;
      }

      .cls-1, .cls-2 {
        fill: none;
        stroke: #fff;
        stroke-miterlimit: 10;
      }

      .cls-3 {
        fill: #37b34a;
      }

      .cls-4 {
        font-family: montserrat, sans-serif;
        font-size: 75.25px;
      }

      .cls-4, .cls-5 {
        fill: #fff;
      }

      .cls-2 {
        stroke-width: 19.52px;
      }

      .cls-5 {
        font-family: montserrat, sans-serif;
        font-size: 226.49px;
        font-weight: 800;
      }

      .cls-6 {
        letter-spacing: -.09em;
      }
    </style>
  </defs>
  <g id="Layer_1-2" data-name="Layer 1">
    <g>
      <text class="cls-5" transform="translate(468.7 216.02)"><tspan x="0" y="0">ONE MPRL</tspan></text>
      <text class="cls-4" transform="translate(494.58 326.09)"><tspan x="0" y="0">SOLAR POWER CORPORATION</tspan></text>
    </g>
    <path class="cls-1" d="M409.65,207.54c.21,19.8-2.46,38.95-7.61,57.05L225.92,86.98c-7.99-8.05-21-8.05-28.99,0L18.16,267.26c-5.47-18.22-8.41-37.54-8.41-57.55C9.76,100.06,98.02,11.02,207.37,9.77c110.7-1.27,201.1,87.07,202.28,197.76Z"/>
    <path class="cls-2" d="M390.03,305.45l-.4,1.69c-.73,3.12-3.52,5.33-6.72,5.33h-23.78c-1.84,0-3.61-.74-4.9-2.04l-11.31-11.41-126.86-127.93c-2.7-2.72-7.1-2.72-9.8,0l-126.86,127.93-11.31,11.41c-1.3,1.31-3.06,2.04-4.9,2.04h-23.78c-3.21,0-5.99-2.21-6.72-5.33l-.4-1.69c-.54-2.31.15-4.75,1.82-6.43h0s14.54-14.66,14.54-14.66L206.25,125.41c2.7-2.72,7.1-2.72,9.8,0l155.39,156.7,16.76,16.91h0c1.67,1.69,2.36,4.12,1.82,6.43Z"/>
    <g>
      <rect class="cls-3" x="175.44" y="259.69" width="31.97" height="31.97" rx="8.24" ry="8.24"/>
      <rect class="cls-3" x="211.85" y="259.69" width="31.97" height="31.97" rx="8.24" ry="8.24"/>
      <rect class="cls-3" x="212.01" y="294.72" width="31.97" height="31.97" rx="8.24" ry="8.24"/>
      <rect class="cls-3" x="175.44" y="294.72" width="31.97" height="31.97" rx="8.24" ry="8.24"/>
    </g>
  </g>
</svg>