<?xml version="1.0" encoding="UTF-8"?>
<svg id="Layer_1" data-name="Layer 1" xmlns="http://www.w3.org/2000/svg" viewBox="0 0 1920 1080">
  <defs>
    <style>
      .cls-1 {
        fill: #fff;
        stroke-width: 0px;
      }

      .cls-2 {
        fill: none;
        stroke: #fff;
        stroke-miterlimit: 10;
        stroke-width: 40px;
      }
    </style>
  </defs>
  <path class="cls-2" d="M1498.7,639.03c.54,50.72-6.3,99.76-19.5,146.11l-451.1-454.89c-20.45-20.62-53.8-20.62-74.25,0l-457.88,461.74c-14-46.67-21.53-96.16-21.53-147.4,0-280.85,226.07-508.9,506.15-512.11,283.53-3.25,515.09,223.01,518.1,506.54Z"/>
  <path class="cls-2" d="M1448.44,889.82l-1.01,4.33c-1.87,8-9,13.65-17.22,13.65h-60.91c-4.72,0-9.24-1.88-12.56-5.23l-28.98-29.23-324.93-327.67c-6.92-6.98-18.19-6.98-25.11,0l-324.93,327.67-28.98,29.23c-3.32,3.35-7.84,5.23-12.56,5.23h-60.91c-8.21,0-15.34-5.66-17.22-13.65l-1.01-4.33c-1.39-5.93.37-12.16,4.66-16.48h0s37.23-37.55,37.23-37.55l403.71-407.11c6.92-6.97,18.19-6.98,25.11,0l398,401.35,42.94,43.31h0c4.29,4.32,6.05,10.55,4.66,16.48Z"/>
  <rect class="cls-1" x="933.38" y="794.26" width="106.41" height="119.71" rx="14.93" ry="14.93"/>
</svg>